<svg width="111" height="110" viewBox="0 0 111 110" fill="none" xmlns="http://www.w3.org/2000/svg">
<g clip-path="url(#clip0_20_1355)">
<path d="M55.5 10.3125C46.6617 10.3125 38.0218 12.9334 30.673 17.8437C23.3242 22.754 17.5964 29.7333 14.2142 37.8988C10.8319 46.0644 9.9469 55.0496 11.6712 63.7181C13.3955 72.3866 17.6515 80.3492 23.9012 86.5988C30.1508 92.8485 38.1134 97.1046 46.7819 98.8288C55.4505 100.553 64.4356 99.6682 72.6012 96.2859C80.7668 92.9036 87.746 87.1759 92.6563 79.827C97.5666 72.4782 100.188 63.8384 100.188 55C100.174 43.1523 95.4613 31.7939 87.0837 23.4163C78.7062 15.0387 67.3477 10.3262 55.5 10.3125ZM76.783 47.175L51.5724 71.2375C50.9314 71.8474 50.0805 72.1875 49.1957 72.1875C48.3109 72.1875 47.46 71.8474 46.819 71.2375L34.2171 59.2062C33.5587 58.5756 33.1776 57.7094 33.1574 56.7979C33.1372 55.8864 33.4796 55.0042 34.1094 54.3451C34.7393 53.6859 35.605 53.3036 36.5164 53.2823C37.4279 53.261 38.3105 53.6023 38.9705 54.2313L49.1957 63.9966L72.0296 42.2C72.6895 41.571 73.5722 41.2297 74.4836 41.2511C75.3951 41.2724 76.2608 41.6546 76.8906 42.3138C77.5204 42.973 77.8629 43.8552 77.8427 44.7667C77.8225 45.6781 77.4414 46.5443 76.783 47.175Z" fill="#0C9E57"/>
</g>
<defs>
<clipPath id="clip0_20_1355">
<rect width="110" height="110" fill="white" transform="translate(0.5)"/>
</clipPath>
</defs>
</svg>
