<svg width="216" height="48" viewBox="0 0 216 48" fill="none" xmlns="http://www.w3.org/2000/svg">
<g clip-path="url(#clip0_12_1797)">
<path d="M93.0466 9.52515C78.3064 9.52515 65.9315 16.9191 62.3932 26.9302H54.5492C53.6227 26.9274 52.7047 27.1079 51.8482 27.4612C50.9916 27.8145 50.2134 28.3337 49.5582 28.9888C48.903 29.644 48.3839 30.4223 48.0306 31.2788C47.6773 32.1354 47.4968 33.0533 47.4995 33.9798V38.6717C47.4966 39.599 47.6768 40.5179 48.0299 41.3754C48.3829 42.233 48.9018 43.0124 49.5568 43.6689C50.2118 44.3254 50.99 44.8461 51.8467 45.2011C52.7034 45.5562 53.6218 45.7385 54.5492 45.7377H58.3065C58.2707 45.3637 58.2533 44.9882 58.2544 44.6125C58.2542 43.1546 58.5412 41.7111 59.099 40.3642C59.6567 39.0173 60.4744 37.7935 61.5052 36.7627C62.536 35.7319 63.7598 34.9142 65.1067 34.3564C66.4536 33.7987 67.8972 33.5117 69.355 33.5119C70.8129 33.5115 72.2566 33.7983 73.6037 34.356C74.9507 34.9137 76.1747 35.7313 77.2057 36.7622C78.2367 37.793 79.0544 39.0169 79.6123 40.3639C80.1702 41.7108 80.4572 43.1545 80.4571 44.6125C80.4571 44.9895 80.4422 45.3696 80.4049 45.7377H104.356C104.32 45.3637 104.303 44.9882 104.304 44.6125C104.303 43.1546 104.59 41.7111 105.148 40.3642C105.706 39.0173 106.524 37.7935 107.555 36.7627C108.585 35.7319 109.809 34.9142 111.156 34.3564C112.503 33.7987 113.946 33.5117 115.404 33.5119C116.862 33.5117 118.306 33.7987 119.653 34.3564C120.999 34.9142 122.223 35.7319 123.254 36.7627C124.285 37.7935 125.102 39.0173 125.66 40.3642C126.218 41.7111 126.505 43.1546 126.505 44.6125C126.505 44.9895 126.49 45.3696 126.453 45.7377H131.562C132.489 45.7385 133.407 45.5562 134.264 45.2013C135.121 44.8463 135.899 44.3258 136.554 43.6694C137.209 43.0131 137.728 42.2338 138.081 41.3765C138.434 40.5191 138.614 39.6004 138.611 38.6732V33.9784C138.614 33.0519 138.433 32.1341 138.08 31.2778C137.727 30.4214 137.207 29.6433 136.552 28.9883C135.897 28.3333 135.119 27.8143 134.263 27.4611C133.406 27.1079 132.488 26.9274 131.562 26.9302H123.719C120.175 16.9191 107.787 9.52515 93.0466 9.52515Z" fill="#FFC215"/>
<path fill-rule="evenodd" clip-rule="evenodd" d="M77.4045 44.6079C77.419 45.6746 77.2214 46.7334 76.8233 47.7231C76.4252 48.7127 75.8344 49.6134 75.0852 50.3728C74.3361 51.1322 73.4435 51.7351 72.4594 52.1467C71.4753 52.5583 70.4192 52.7702 69.3525 52.7702C68.2858 52.7702 67.2297 52.5583 66.2456 52.1467C65.2615 51.7351 64.3689 51.1322 63.6198 50.3728C62.8707 49.6134 62.2799 48.7127 61.8817 47.7231C61.4836 46.7334 61.286 45.6746 61.3005 44.6079C61.3293 42.4914 62.1903 40.4713 63.6973 38.9848C65.2042 37.4982 67.2358 36.6648 69.3525 36.6648C71.4692 36.6648 73.5009 37.4982 75.0078 38.9848C76.5147 40.4713 77.3757 42.4914 77.4045 44.6079ZM123.449 44.6079C123.464 45.6746 123.266 46.7334 122.868 47.7231C122.47 48.7127 121.879 49.6134 121.13 50.3728C120.381 51.1322 119.488 51.7351 118.504 52.1467C117.52 52.5583 116.464 52.7702 115.397 52.7702C114.331 52.7702 113.275 52.5583 112.29 52.1467C111.306 51.7351 110.414 51.1322 109.665 50.3728C108.915 49.6134 108.325 48.7127 107.927 47.7231C107.528 46.7334 107.331 45.6746 107.345 44.6079C107.374 42.4914 108.235 40.4713 109.742 38.9848C111.249 37.4982 113.281 36.6648 115.397 36.6648C117.514 36.6648 119.546 37.4982 121.053 38.9848C122.559 40.4713 123.42 42.4914 123.449 44.6079Z" fill="#5D5E63"/>
<path opacity="0.413" d="M93.046 9.52026C78.3053 9.52026 65.931 16.9141 62.3931 26.9249H54.5476C53.6213 26.9224 52.7035 27.103 51.8472 27.4564C50.9909 27.8098 50.2129 28.3289 49.558 28.984C48.903 29.6391 48.3839 30.4172 48.0307 31.2736C47.6774 32.1299 47.4969 33.0477 47.4995 33.974V38.6845C47.4971 39.6108 47.6777 40.5285 48.031 41.3847C48.3843 42.2409 48.9033 43.0189 49.5583 43.6738C50.2133 44.3288 50.9912 44.8479 51.8475 45.2012C52.7037 45.5545 53.6214 45.7351 54.5476 45.7326H58.3061C58.2702 45.3585 58.2529 44.9829 58.254 44.6071C58.254 38.4745 63.2227 33.5057 69.3548 33.5057C75.4868 33.5057 80.4555 38.4745 80.4555 44.6071C80.4555 44.9839 80.4406 45.3647 80.4035 45.7321H83.6593L101.151 10.2823C98.5639 9.78073 95.8473 9.52026 93.046 9.52026Z" fill="url(#paint0_linear_12_1797)"/>
<path opacity="0.466" d="M93.0463 9.52026C83.6086 9.52026 75.1374 12.5572 69.3379 17.3652L100.823 45.7326H104.355C104.319 45.3585 104.302 44.9829 104.303 44.6071C104.303 38.4745 109.272 33.5057 115.404 33.5057C121.536 33.5057 126.505 38.4745 126.505 44.6071C126.505 44.9839 126.49 45.3647 126.453 45.7321H131.562C132.488 45.7346 133.406 45.5539 134.262 45.2006C135.118 44.8473 135.896 44.3283 136.551 43.6733C137.206 43.0183 137.725 42.2403 138.078 41.3841C138.432 40.5279 138.612 39.6103 138.61 38.684V33.9735C138.612 33.0472 138.432 32.1295 138.079 31.2732C137.725 30.4169 137.206 29.6388 136.551 28.9838C135.896 28.3288 135.118 27.8097 134.262 27.4563C133.406 27.103 132.488 26.9224 131.562 26.9249H123.716C120.175 16.9141 107.786 9.52026 93.0463 9.52026Z" fill="url(#paint1_linear_12_1797)"/>
<path d="M89.7232 15.1646C80.5184 16.0767 72.9158 20.7178 69.8232 26.9418H89.7232V15.1646ZM96.372 15.1646V26.9418H116.27C113.173 20.7134 105.583 16.0737 96.372 15.1646Z" fill="#2E8CEA"/>
<path fill-rule="evenodd" clip-rule="evenodd" d="M56.4882 26.9241C56.6149 27.3772 56.6968 27.8496 56.6968 28.3444C56.6976 29.0337 56.5624 29.7164 56.299 30.3534C56.0355 30.9903 55.649 31.569 55.1615 32.0564C54.674 32.5437 54.0952 32.9301 53.4581 33.1934C52.8211 33.4567 52.1384 33.5917 51.4491 33.5907H47.4995C47.5946 31.7903 48.377 30.095 49.6854 28.8545C50.9938 27.6141 52.7283 26.9231 54.5313 26.9241H56.4882Z" fill="#FF5D42"/>
<path opacity="0.413" fill-rule="evenodd" clip-rule="evenodd" d="M75.6237 39.5557L67.6753 52.4746C68.2163 52.5893 68.7797 52.6653 69.355 52.6653C70.875 52.666 72.3642 52.2364 73.6503 51.4262C74.9365 50.616 75.967 49.4584 76.6229 48.0872C77.2787 46.7159 77.5331 45.187 77.3565 43.6773C77.18 42.1675 76.5782 40.7386 75.6237 39.5557Z" fill="#4C4C50"/>
<path opacity="0.466" fill-rule="evenodd" clip-rule="evenodd" d="M73.9843 51.2016L61.6243 42.4082C61.4661 42.9511 61.3652 43.5091 61.3232 44.073C61.2216 45.5895 61.5511 47.1038 62.2739 48.4408C62.9966 49.7779 64.083 50.8831 65.4074 51.6287C66.7319 52.3743 68.2403 52.7299 69.7583 52.6543C71.2763 52.5788 72.7404 52.0751 73.9843 51.2016Z" fill="#4C4C50"/>
<path d="M67.5423 13.1377H22.2427M58.1214 20.0651H28.4965M46.3457 27.4084H24.5558M22.3992 20.0651H14.1289M43.1622 35.0691H34.8933" stroke="#FCCD00" stroke-width="2.77068" stroke-linecap="round" stroke-linejoin="round"/>
</g>
<path d="M106.757 44.6931L116.426 16.1081H124.33L133.999 44.6931H127.515L125.597 38.861H115.122L113.203 44.6931H106.757ZM116.772 33.6812H123.947L119.573 20.1752H121.184L116.772 33.6812ZM146.61 45.1535C144.819 45.1535 143.131 44.8338 141.545 44.1943C139.985 43.5293 138.629 42.5956 137.478 41.3934C136.352 40.1911 135.508 38.7715 134.945 37.1344L139.818 34.9474C140.535 36.5077 141.519 37.7355 142.773 38.6308C144.052 39.5261 145.459 39.9737 146.993 39.9737C147.812 39.9737 148.515 39.8458 149.104 39.59C149.692 39.3342 150.152 38.9889 150.485 38.5541C150.818 38.0936 150.984 37.5565 150.984 36.9426C150.984 36.2775 150.779 35.7147 150.37 35.2543C149.961 34.7683 149.321 34.3846 148.451 34.1032L142.85 32.2615C140.573 31.5197 138.859 30.471 137.708 29.1152C136.557 27.734 135.981 26.0841 135.981 24.1656C135.981 22.4774 136.391 20.9938 137.209 19.7148C138.053 18.4358 139.217 17.4382 140.701 16.722C142.21 16.0058 143.937 15.6477 145.881 15.6477C147.595 15.6477 149.18 15.9418 150.638 16.5302C152.097 17.1185 153.35 17.9498 154.399 19.0242C155.473 20.0985 156.279 21.3903 156.816 22.8994L151.981 25.0865C151.444 23.7564 150.638 22.7204 149.564 21.9786C148.49 21.2112 147.262 20.8275 145.881 20.8275C145.088 20.8275 144.384 20.9554 143.77 21.2112C143.156 21.467 142.683 21.8379 142.351 22.3239C142.018 22.7843 141.852 23.3215 141.852 23.9354C141.852 24.6005 142.069 25.1888 142.504 25.7004C142.939 26.1864 143.591 26.5701 144.461 26.8515L149.948 28.6164C152.25 29.3583 153.964 30.3942 155.089 31.7243C156.24 33.0545 156.816 34.6788 156.816 36.5972C156.816 38.2599 156.381 39.7435 155.511 41.048C154.642 42.327 153.439 43.3374 151.905 44.0792C150.395 44.7954 148.63 45.1535 146.61 45.1535ZM160.671 44.6931V16.1081H165.236L180.584 36.3286L178.128 36.9042V16.1081H184.076V44.6931H179.471L164.392 24.3191L166.618 23.7436V44.6931H160.671ZM188.764 44.6931V16.1081H193.33L208.677 36.3286L206.222 36.9042V16.1081H212.169V44.6931H207.565L192.486 24.3191L194.711 23.7436V44.6931H188.764Z" fill="white"/>
<defs>
<linearGradient id="paint0_linear_12_1797" x1="96.0906" y1="28.2139" x2="76.0714" y2="22.3357" gradientUnits="userSpaceOnUse">
<stop stop-color="#FF8915"/>
<stop offset="1" stop-color="#FF8915" stop-opacity="0"/>
</linearGradient>
<linearGradient id="paint1_linear_12_1797" x1="84.8167" y1="40.1659" x2="111.376" y2="23.7073" gradientUnits="userSpaceOnUse">
<stop stop-color="#FFF306"/>
<stop offset="1" stop-color="#FFF306" stop-opacity="0"/>
</linearGradient>
<clipPath id="clip0_12_1797">
<rect width="95.3864" height="95.3864" fill="white" transform="translate(0 -47.6931)"/>
</clipPath>
</defs>
</svg>
