<svg width="408" height="112" viewBox="0 0 408 112" fill="none" xmlns="http://www.w3.org/2000/svg">
<path d="M94.176 66.2719C94.1816 71.9431 92.9274 77.5447 90.504 82.672C88.0806 87.7993 84.5485 92.3242 80.1629 95.9199H31.453C25.3844 90.9363 20.9896 84.2118 18.8614 76.6531C12.0096 52.2305 30.3739 27.9039 55.808 27.9039C65.9838 27.9039 75.7429 31.9463 82.9382 39.1417C90.1336 46.337 94.176 56.0961 94.176 66.2719Z" fill="#E2DBE7"/>
<path d="M92.7546 76.6531C90.6264 84.2119 86.2316 90.9364 80.163 95.92H31.4531C25.3844 90.9364 20.9897 84.2119 18.8614 76.6531C20.4957 76.4305 22.0388 75.7682 23.326 74.7369C25.7139 72.8207 28.4652 71.408 31.4139 70.584C34.3626 69.76 37.4477 69.5417 40.483 69.9425C43.5183 70.3432 46.4411 71.3545 49.0749 72.9155C51.7088 74.4765 53.9992 76.5547 55.808 79.025C63.5426 68.4956 78.3121 66.769 88.2747 74.7325C89.5664 75.7669 91.1149 76.4307 92.7546 76.6531Z" fill="#7ADA90"/>
<path d="M80.1629 97.6639H31.453C31.049 97.6639 30.6576 97.5236 30.3455 97.2671C25.6528 93.4006 21.8921 88.5259 19.3431 83.0056C19.2475 82.7974 19.1938 82.5725 19.1851 82.3436C19.1764 82.1148 19.2129 81.8864 19.2924 81.6716C19.372 81.4569 19.493 81.2598 19.6487 81.0919C19.8044 80.9239 19.9917 80.7882 20.1998 80.6926C20.4079 80.597 20.6329 80.5433 20.8617 80.5346C21.0906 80.5259 21.319 80.5624 21.5337 80.6419C21.7485 80.7215 21.9455 80.8426 22.1135 80.9982C22.2815 81.1539 22.4172 81.3412 22.5128 81.5493C24.7529 86.4015 28.0196 90.7095 32.0873 94.1759H79.5307C83.5805 90.7424 86.8328 86.467 89.0609 81.6477C91.2891 76.8285 92.4394 71.5813 92.4319 66.2719C92.4319 46.0764 76.0034 29.6479 55.8079 29.6479C32.2639 29.6479 14.7956 51.6267 20.1344 74.5973C20.1862 74.8205 20.1936 75.0516 20.1561 75.2776C20.1185 75.5036 20.0369 75.72 19.9157 75.9145C19.7946 76.1089 19.6363 76.2776 19.4499 76.4108C19.2636 76.5441 19.0528 76.6394 18.8297 76.6912C18.6065 76.743 18.3753 76.7504 18.1493 76.7128C17.9234 76.6753 17.707 76.5936 17.5125 76.4725C17.3181 76.3513 17.1494 76.1931 17.0161 76.0067C16.8829 75.8204 16.7876 75.6096 16.7358 75.3865C10.8781 50.1857 30.0839 26.1599 55.8079 26.1599C77.9262 26.1599 95.9199 44.1536 95.9199 66.2719C95.928 72.2011 94.6178 78.058 92.0842 83.4186C89.5505 88.7792 85.8568 93.5095 81.2703 97.2671C80.9582 97.5236 80.5668 97.6639 80.1629 97.6639Z" fill="#432C52"/>
<path d="M65.6572 97.6639H45.9587C45.7106 97.6628 45.4656 97.6087 45.24 97.5053C45.0145 97.402 44.8136 97.2516 44.6507 97.0644C37.1145 88.4185 33.136 77.7714 33.136 66.2719C33.136 50.1988 41.045 35.6865 54.8379 26.4543C55.1249 26.2621 55.4626 26.1595 55.808 26.1595C56.1534 26.1595 56.491 26.2621 56.7781 26.4543C70.5709 35.6865 78.48 50.1988 78.48 66.2719C78.48 77.7714 74.5015 88.4185 66.9717 97.0644C66.8082 97.2525 66.6062 97.4033 66.3795 97.5067C66.1527 97.6101 65.9064 97.6637 65.6572 97.6639ZM46.761 94.1759H64.855C80.5837 75.4672 78.384 45.9129 55.808 30.0186C33.2254 45.9195 31.0388 75.4759 46.761 94.1759Z" fill="#432C52"/>
<path d="M55.808 95.9199H5.23206V89.3799C5.23206 87.4141 6.01296 85.5288 7.40298 84.1388C8.793 82.7488 10.6783 81.9679 12.6441 81.9679H17.6341C20.8959 81.9691 24.0608 80.8588 26.6069 78.82C36.3341 71.0505 50.8464 75.6721 54.2929 87.5857C54.6766 88.8916 54.6788 89.1466 55.808 95.9199Z" fill="#F6EDC8"/>
<path d="M55.8079 95.9198H5.23195V89.3798C5.22911 87.9922 5.61829 86.632 6.35465 85.4558H46.0742C48.952 85.4532 51.7826 86.1864 54.2972 87.5857C54.6765 88.8915 54.6787 89.1466 55.8079 95.9198Z" fill="#F4DCB5"/>
<path d="M55.8079 97.6639H5.23194C4.76941 97.6639 4.32581 97.4802 3.99875 97.1531C3.67169 96.826 3.48795 96.3824 3.48795 95.9199V89.3799C3.48795 86.9516 4.45259 84.6227 6.16967 82.9056C7.88676 81.1886 10.2156 80.2239 12.6439 80.2239H17.634C20.4989 80.22 23.2778 79.2448 25.5168 77.4575C28.1328 75.3648 31.2505 73.9924 34.5606 73.4765C37.8707 72.9606 41.2581 73.3191 44.3869 74.5164C47.5157 75.7137 50.2771 77.7082 52.3971 80.3021C54.5171 82.896 55.9222 85.9991 56.4728 89.3036L57.5279 95.6256C57.5708 95.876 57.5585 96.1327 57.4918 96.3778C57.4251 96.6229 57.3056 96.8505 57.1418 97.0446C56.978 97.2388 56.7737 97.3948 56.5433 97.5017C56.3129 97.6087 56.0619 97.664 55.8079 97.6639ZM6.97594 94.1759H53.75L53.0328 89.8769C52.5825 87.1722 51.4327 84.6322 49.6975 82.509C47.9624 80.3858 45.7022 78.7533 43.1413 77.7734C40.5804 76.7935 37.8078 76.5003 35.0985 76.9229C32.3893 77.3455 29.8377 78.4692 27.6968 80.1825C24.838 82.4628 21.2908 83.7069 17.634 83.7119H12.6439C11.1407 83.7119 9.69902 84.3091 8.63606 85.372C7.57311 86.435 6.97594 87.8767 6.97594 89.3799V94.1759Z" fill="#432C52"/>
<path d="M106.384 89.3799V95.9199H55.8079C56.9546 89.042 56.9481 88.8567 57.3187 87.5857C60.7696 75.672 75.2797 71.0483 85.0046 78.82C87.552 80.8596 90.7186 81.9699 93.9819 81.9679H98.9719C100.938 81.9679 102.823 82.7488 104.213 84.1388C105.603 85.5288 106.384 87.4141 106.384 89.3799Z" fill="#F6EDC8"/>
<path d="M106.384 89.3798V95.9198H55.8079C56.9546 89.0419 56.9481 88.8566 57.3187 87.5857C59.8335 86.1869 62.664 85.4538 65.5416 85.4558H105.261C105.998 86.632 106.387 87.9922 106.384 89.3798Z" fill="#F4DCB5"/>
<path d="M106.384 97.664H55.808C55.5546 97.6639 55.3043 97.6087 55.0744 97.5021C54.8446 97.3956 54.6407 97.2402 54.477 97.0468C54.3133 96.8534 54.1937 96.6267 54.1265 96.3824C54.0593 96.1381 54.0462 95.8821 54.088 95.6322L55.1431 89.3102C55.6937 86.0057 57.0987 82.9026 59.2188 80.3087C61.3388 77.7148 64.1002 75.7203 67.229 74.523C70.3578 73.3257 73.7452 72.9672 77.0553 73.4831C80.3654 73.999 83.4831 75.3714 86.0991 77.4641C88.339 79.249 91.1178 80.2219 93.9819 80.224H98.972C101.4 80.224 103.729 81.1886 105.446 82.9057C107.163 84.6228 108.128 86.9516 108.128 89.38V95.92C108.128 96.3825 107.944 96.8261 107.617 97.1531C107.29 97.4802 106.846 97.664 106.384 97.664ZM57.8659 94.176H104.64V89.38C104.64 87.8767 104.043 86.435 102.98 85.3721C101.917 84.3091 100.475 83.712 98.972 83.712H93.9819C90.3288 83.7045 86.7859 82.4605 83.93 80.1825C81.7891 78.4692 79.2375 77.3456 76.5283 76.923C73.819 76.5004 71.0464 76.7936 68.4855 77.7735C65.9245 78.7534 63.6644 80.3859 61.9292 82.5091C60.1941 84.6322 59.0443 87.1722 58.594 89.877L57.8659 94.176Z" fill="#432C52"/>
<path d="M109.872 95.0479C109.872 96.2042 109.413 97.3132 108.595 98.1309C107.777 98.9485 106.668 99.4079 105.512 99.4079H64.7459C64.1865 99.4078 63.643 99.5949 63.2022 99.9394C62.7613 100.284 62.4483 100.766 62.3131 101.309C61.9503 102.758 61.1135 104.045 59.9356 104.964C58.7578 105.884 57.3065 106.383 55.8123 106.383C54.3182 106.383 52.8669 105.884 51.689 104.964C50.5112 104.045 49.6744 102.758 49.3116 101.309C49.1756 100.765 48.8612 100.282 48.4187 99.9372C47.9761 99.5926 47.4308 99.4062 46.87 99.4079H6.10399C4.94764 99.4079 3.83866 98.9485 3.021 98.1309C2.20334 97.3132 1.74399 96.2042 1.74399 95.0479C1.74399 93.8915 2.20334 92.7825 3.021 91.9649C3.83866 91.1472 4.94764 90.6879 6.10399 90.6879H46.0743C48.0027 90.6876 49.9012 91.1653 51.5998 92.0784C53.2984 92.9914 54.7443 94.3113 55.808 95.9199C56.8716 94.3113 58.3175 92.9914 60.0161 92.0784C61.7147 91.1653 63.6132 90.6876 65.5416 90.6879H105.512C106.668 90.6879 107.777 91.1472 108.595 91.9649C109.413 92.7825 109.872 93.8915 109.872 95.0479Z" fill="#7ADA90"/>
<path d="M105.512 94.1759H64.746C64.1865 94.1758 63.643 94.3629 63.2022 94.7074C62.7613 95.0519 62.4483 95.5339 62.3131 96.0768C61.9503 97.5263 61.1135 98.8129 59.9356 99.7323C58.7578 100.652 57.3065 101.151 55.8123 101.151C54.3182 101.151 52.8669 100.652 51.689 99.7323C50.5112 98.8129 49.6744 97.5263 49.3116 96.0768C49.176 95.5325 48.8617 95.0494 48.419 94.7047C47.9764 94.3601 47.431 94.1739 46.87 94.1759H6.10399C5.42695 94.1769 4.75902 94.0198 4.15345 93.717C3.54788 93.4142 3.02141 92.9741 2.616 92.4319C2.04827 93.1857 1.7421 94.1042 1.744 95.0479C1.744 96.2042 2.20335 97.3132 3.02101 98.1309C3.83867 98.9485 4.94765 99.4079 6.10399 99.4079H46.87C47.4295 99.4078 47.9729 99.5949 48.4138 99.9394C48.8546 100.284 49.1676 100.766 49.3028 101.309C49.6657 102.758 50.5025 104.045 51.6803 104.964C52.8581 105.884 54.3094 106.383 55.8036 106.383C57.2978 106.383 58.7491 105.884 59.9269 104.964C61.1047 104.045 61.9415 102.758 62.3044 101.309C62.44 100.764 62.7542 100.281 63.1969 99.9367C63.6395 99.5921 64.185 99.4059 64.746 99.4079H105.512C106.668 99.4079 107.777 98.9485 108.595 98.1309C109.413 97.3132 109.872 96.2042 109.872 95.0479C109.874 94.1042 109.568 93.1857 109 92.4319C108.595 92.9741 108.068 93.4142 107.462 93.717C106.857 94.0198 106.189 94.1769 105.512 94.1759Z" fill="#01953F"/>
<path d="M55.808 108.128C53.9242 108.13 52.094 107.501 50.6091 106.342C49.1243 105.183 48.0704 103.56 47.6155 101.732C47.5744 101.565 47.4785 101.418 47.3433 101.313C47.208 101.207 47.0413 101.151 46.87 101.152H6.104C4.48512 101.152 2.93254 100.509 1.78782 99.364C0.643098 98.2193 0 96.6667 0 95.0478C0 93.4289 0.643098 91.8764 1.78782 90.7317C2.93254 89.5869 4.48512 88.9438 6.104 88.9438H46.0743C47.8959 88.9415 49.6988 89.3112 51.3725 90.0301C53.0463 90.7491 54.5556 91.8023 55.808 93.1251C57.0604 91.8024 58.5698 90.7493 60.2435 90.0303C61.9172 89.3114 63.7201 88.9416 65.5417 88.9438H105.512C107.131 88.9438 108.683 89.5869 109.828 90.7317C110.973 91.8764 111.616 93.4289 111.616 95.0478C111.616 96.6667 110.973 98.2193 109.828 99.364C108.683 100.509 107.131 101.152 105.512 101.152H90.688C90.2254 101.152 89.7818 100.968 89.4548 100.641C89.1277 100.314 88.9439 99.8704 88.9439 99.4078C88.9439 98.9453 89.1277 98.5017 89.4548 98.1746C89.7818 97.8476 90.2254 97.6638 90.688 97.6638H105.512C106.206 97.6638 106.871 97.3882 107.362 96.8976C107.852 96.407 108.128 95.7416 108.128 95.0478C108.128 94.354 107.852 93.6886 107.362 93.198C106.871 92.7074 106.206 92.4318 105.512 92.4318H65.5417C63.9 92.43 62.2836 92.836 60.8377 93.6134C59.3917 94.3907 58.1616 95.5151 57.2577 96.8856C57.0985 97.1248 56.8826 97.321 56.6293 97.4566C56.376 97.5923 56.0931 97.6633 55.8058 97.6633C55.5184 97.6633 55.2355 97.5923 54.9822 97.4566C54.729 97.321 54.5131 97.1248 54.3539 96.8856C53.4503 95.5149 52.2202 94.3903 50.7742 93.6128C49.3282 92.8354 47.7116 92.4296 46.0699 92.4318H6.104C5.41019 92.4318 4.7448 92.7074 4.25421 93.198C3.76361 93.6886 3.488 94.354 3.488 95.0478C3.488 95.7416 3.76361 96.407 4.25421 96.8976C4.7448 97.3882 5.41019 97.6638 6.104 97.6638H46.87C47.8186 97.6631 48.7401 97.9799 49.4876 98.5639C50.2352 99.1479 50.7657 99.9653 50.9945 100.886C51.2628 101.958 51.8818 102.91 52.7532 103.59C53.6245 104.271 54.6982 104.64 55.8036 104.64C56.909 104.64 57.9827 104.271 58.854 103.59C59.7254 102.91 60.3444 101.958 60.6127 100.886C60.8419 99.9638 61.3737 99.1453 62.123 98.5612C62.8723 97.9771 63.7959 97.6611 64.746 97.6638H83.712C84.1745 97.6638 84.6181 97.8476 84.9451 98.1746C85.2722 98.5017 85.4559 98.9453 85.4559 99.4078C85.4559 99.8704 85.2722 100.314 84.9451 100.641C84.6181 100.968 84.1745 101.152 83.712 101.152H64.746C64.5754 101.152 64.4097 101.209 64.2753 101.314C64.141 101.419 64.0457 101.566 64.0048 101.732C63.5497 103.56 62.4952 105.184 61.0095 106.343C59.5237 107.503 57.6925 108.131 55.808 108.128ZM30.8775 37.4326C30.6902 37.2622 30.5422 37.053 30.4438 36.8196C30.3455 36.5862 30.2992 36.3342 30.3081 36.0811C30.3171 35.828 30.381 35.5799 30.4955 35.354C30.61 35.1281 30.7724 34.9298 30.9712 34.773C38.0444 29.1863 46.7946 26.1475 55.808 26.1475C64.8214 26.1475 73.5715 29.1863 80.6447 34.773C80.8436 34.9298 81.0059 35.1281 81.1204 35.354C81.2349 35.5799 81.2989 35.828 81.3078 36.0811C81.3167 36.3342 81.2704 36.5862 81.1721 36.8196C81.0738 37.053 80.9258 37.2622 80.7384 37.4326C69.1452 47.986 42.4577 47.9729 30.8775 37.4326ZM34.9018 36.1879C45.4464 43.698 66.1019 43.7459 76.7142 36.1879C70.5783 31.919 63.2827 29.6308 55.808 29.6308C48.3332 29.6308 41.0376 31.919 34.9018 36.1879ZM94.1759 68.0158H17.44C16.9775 68.0158 16.5339 67.8321 16.2068 67.505C15.8797 67.178 15.696 66.7344 15.696 66.2718C15.696 65.8093 15.8797 65.3657 16.2068 65.0386C16.5339 64.7116 16.9775 64.5278 17.44 64.5278H94.1759C94.6385 64.5278 95.0821 64.7116 95.4091 65.0386C95.7362 65.3657 95.9199 65.8093 95.9199 66.2718C95.9199 66.7344 95.7362 67.178 95.4091 67.505C95.0821 67.8321 94.6385 68.0158 94.1759 68.0158Z" fill="#432C52"/>
<path d="M32.2046 17.2023C28.8202 18.3965 25.8589 20.1811 23.564 22.4094C21.2692 24.6377 19.7063 27.2461 19.0039 30.0202L18.6027 31.6044L18.2014 30.0202C17.4993 27.246 15.9365 24.6375 13.6417 22.4092C11.3468 20.1809 8.38528 18.3963 5.00073 17.2023C8.38512 16.0082 11.3465 14.2236 13.6413 11.9953C15.9362 9.767 17.499 7.1586 18.2014 4.38452L18.6027 2.80029L19.0039 4.38452C19.706 7.15867 21.2688 9.76716 23.5637 11.9955C25.8586 14.2238 28.8201 16.0084 32.2046 17.2023Z" fill="#01953F"/>
<path d="M19.0027 27.4038C24.4158 27.4038 28.8041 23.0156 28.8041 17.6024C28.8041 12.1893 24.4158 7.80103 19.0027 7.80103C13.5895 7.80103 9.20126 12.1893 9.20126 17.6024C9.20126 23.0156 13.5895 27.4038 19.0027 27.4038Z" fill="#E2DBE7"/>
<path d="M19.0027 25.0702C23.127 25.0702 26.4704 21.7268 26.4704 17.6025C26.4704 13.4782 23.127 10.1348 19.0027 10.1348C14.8784 10.1348 11.5349 13.4782 11.5349 17.6025C11.5349 21.7268 14.8784 25.0702 19.0027 25.0702Z" fill="#C6B6CF"/>
<path d="M16.1848 21.323L16.2996 14.1582C16.3011 14.0647 16.3776 13.9898 16.4712 13.9904V13.9904C16.5292 13.9907 16.5831 14.0206 16.6141 14.0696L21.1856 21.2751C21.2165 21.3238 21.27 21.3534 21.3277 21.3537V21.3537C21.4213 21.3543 21.4976 21.2789 21.4981 21.1853L21.5409 14.024M14.7151 16.5993L23.0969 16.6494M14.7026 18.6947L23.0844 18.7448" stroke="#432C52" stroke-width="0.943511" stroke-linecap="round"/>
<path d="M19.0027 27.8706C16.9718 27.8706 14.9866 27.2684 13.298 26.1401C11.6094 25.0119 10.2933 23.4082 9.51618 21.5319C8.73901 19.6557 8.53566 17.5911 8.93186 15.5993C9.32806 13.6075 10.306 11.7778 11.742 10.3418C13.1781 8.9058 15.0077 7.92785 16.9995 7.53165C18.9913 7.13546 21.0559 7.3388 22.9321 8.11597C24.8084 8.89314 26.4121 10.2092 27.5403 11.8978C28.6686 13.5864 29.2708 15.5716 29.2708 17.6025C29.2677 20.3248 28.1849 22.9348 26.26 24.8597C24.335 26.7847 21.725 27.8675 19.0027 27.8706ZM19.0027 8.26782C17.1565 8.26782 15.3517 8.81529 13.8166 9.841C12.2816 10.8667 11.0851 12.3246 10.3786 14.0303C9.67207 15.736 9.48721 17.6128 9.84739 19.4236C10.2076 21.2343 11.0966 22.8976 12.4021 24.2031C13.7076 25.5086 15.3708 26.3976 17.1816 26.7578C18.9923 27.118 20.8692 26.9331 22.5749 26.2266C24.2806 25.5201 25.7385 24.3236 26.7642 22.7886C27.7899 21.2535 28.3374 19.4487 28.3374 17.6025C28.3345 15.1277 27.3501 12.755 25.6002 11.005C23.8502 9.25505 21.4775 8.27066 19.0027 8.26782Z" fill="#432C52"/>
<path d="M25.4945 21.7609C25.4128 21.7608 25.3326 21.7393 25.2618 21.6986C25.1911 21.6578 25.1323 21.5991 25.0913 21.5285C25.0503 21.4579 25.0285 21.3778 25.0282 21.2961C25.0278 21.2144 25.0489 21.1341 25.0893 21.0631C25.8482 19.7302 26.1483 18.1848 25.9435 16.6647C25.7386 15.1446 25.0403 13.7338 23.9557 12.6492C22.8712 11.5646 21.4604 10.8662 19.9403 10.6613C18.4202 10.4564 16.8749 10.7564 15.5419 11.5152C15.4886 11.5466 15.4296 11.567 15.3683 11.5754C15.3071 11.5838 15.2448 11.5799 15.185 11.564C15.1253 11.5481 15.0693 11.5205 15.0203 11.4828C14.9713 11.4451 14.9303 11.398 14.8996 11.3443C14.869 11.2906 14.8493 11.2313 14.8418 11.1699C14.8342 11.1086 14.839 11.0463 14.8557 10.9868C14.8724 10.9273 14.9008 10.8717 14.9392 10.8232C14.9776 10.7747 15.0252 10.7344 15.0793 10.7045C16.5901 9.84415 18.3416 9.50387 20.0647 9.73592C21.7877 9.96798 23.3868 10.7595 24.6161 11.9889C25.8455 13.2182 26.637 14.8173 26.8691 16.5403C27.1011 18.2634 26.7608 20.0149 25.9005 21.5257C25.8596 21.5972 25.8005 21.6567 25.7292 21.698C25.6579 21.7394 25.5769 21.761 25.4945 21.7609ZM19.0027 25.5368C17.6141 25.537 16.2497 25.1728 15.046 24.4805C13.8422 23.7883 12.8412 22.7923 12.143 21.592C11.4447 20.3917 11.0737 19.0291 11.067 17.6406C11.0604 16.252 11.4182 14.8859 12.1048 13.679C12.1347 13.6248 12.1751 13.5772 12.2236 13.5388C12.272 13.5004 12.3276 13.472 12.3872 13.4553C12.4467 13.4386 12.5089 13.4339 12.5703 13.4414C12.6317 13.449 12.6909 13.4686 12.7446 13.4993C12.7983 13.5299 12.8454 13.5709 12.8832 13.6199C12.9209 13.6689 12.9485 13.7249 12.9644 13.7846C12.9803 13.8444 12.9842 13.9067 12.9758 13.968C12.9674 14.0292 12.9469 14.0882 12.9155 14.1415C12.1567 15.4745 11.8566 17.0198 12.0614 18.5399C12.2662 20.06 12.9646 21.4708 14.0492 22.5554C15.1337 23.64 16.5445 24.3385 18.0646 24.5433C19.5847 24.7482 21.13 24.4482 22.463 23.6894C22.5163 23.659 22.575 23.6394 22.6358 23.6317C22.6966 23.624 22.7583 23.6283 22.8175 23.6445C22.8766 23.6606 22.932 23.6883 22.9805 23.7258C23.0289 23.7634 23.0695 23.8101 23.0999 23.8633C23.1303 23.9165 23.1499 23.9752 23.1576 24.0361C23.1653 24.0969 23.161 24.1586 23.1449 24.2177C23.1287 24.2769 23.1011 24.3323 23.0635 24.3807C23.026 24.4292 22.9793 24.4698 22.926 24.5002C21.7303 25.1803 20.3783 25.5375 19.0027 25.5368ZM13.8686 12.935C13.7451 12.9332 13.6267 12.8848 13.5372 12.7996C13.4513 12.7106 13.4028 12.592 13.4019 12.4682C13.4026 12.4073 13.4151 12.3471 13.4388 12.2909C13.4628 12.2344 13.4961 12.1824 13.5372 12.1369C13.5916 12.083 13.6584 12.0432 13.7317 12.0212C13.805 11.9992 13.8826 11.9956 13.9577 12.0106C14.0328 12.0257 14.103 12.059 14.1621 12.1076C14.2213 12.1562 14.2676 12.2186 14.297 12.2893C14.3263 12.36 14.3378 12.4368 14.3305 12.513C14.3231 12.5892 14.2972 12.6625 14.2548 12.7263C14.2125 12.7901 14.1551 12.8425 14.0878 12.8789C14.0204 12.9153 13.9452 12.9345 13.8686 12.935ZM24.1367 23.2031C24.0301 23.202 23.927 23.1641 23.8451 23.0957C23.7632 23.0273 23.7075 22.9326 23.6875 22.8278C23.6675 22.723 23.6843 22.6145 23.7352 22.5207C23.7861 22.4269 23.8679 22.3537 23.9666 22.3133C24.0654 22.273 24.1751 22.268 24.2771 22.2994C24.3791 22.3307 24.4671 22.3964 24.5262 22.4853C24.5852 22.5741 24.6117 22.6807 24.6011 22.7869C24.5906 22.8931 24.5436 22.9923 24.4681 23.0678C24.3786 23.153 24.2603 23.2013 24.1367 23.2031Z" fill="#432C52"/>
<path d="M114.616 31.6044C111.232 32.7986 108.271 34.5832 105.976 36.8115C103.681 39.0398 102.118 41.6482 101.416 44.4223L101.014 46.0065L100.613 44.4223C99.911 41.6481 98.3483 39.0396 96.0534 36.8113C93.7585 34.583 90.797 32.7984 87.4125 31.6044C90.7969 30.4103 93.7582 28.6257 96.0531 26.3974C98.3479 24.1691 99.9108 21.5607 100.613 18.7866L101.014 17.2024L101.416 18.7866C102.118 21.5608 103.681 24.1693 105.975 26.3976C108.27 28.6259 111.232 30.4105 114.616 31.6044Z" fill="#01953F"/>
<path d="M101.014 41.4058C106.428 41.4058 110.816 37.0175 110.816 31.6044C110.816 26.1912 106.428 21.803 101.014 21.803C95.6012 21.803 91.213 26.1912 91.213 31.6044C91.213 37.0175 95.6012 41.4058 101.014 41.4058Z" fill="#E2DBE7"/>
<path d="M101.014 39.0721C105.139 39.0721 108.482 35.7286 108.482 31.6043C108.482 27.48 105.139 24.1366 101.014 24.1366C96.8901 24.1366 93.5467 27.48 93.5467 31.6043C93.5467 35.7286 96.8901 39.0721 101.014 39.0721Z" fill="#C6B6CF"/>
<path d="M98.1965 35.3251L98.3113 28.1603C98.3128 28.0668 98.3894 27.9919 98.4829 27.9925V27.9925C98.5409 27.9928 98.5948 28.0226 98.6259 28.0716L103.197 35.2772C103.228 35.3258 103.282 35.3555 103.339 35.3558V35.3558C103.433 35.3564 103.509 35.281 103.51 35.1874L103.553 28.026M96.7268 30.6014L105.109 30.6515M96.7143 32.6968L105.096 32.7469" stroke="#432C52" stroke-width="0.943511" stroke-linecap="round"/>
<path d="M101.014 41.8726C98.9836 41.8726 96.9983 41.2704 95.3098 40.1421C93.6212 39.0138 92.3051 37.4101 91.5279 35.5339C90.7507 33.6576 90.5474 31.5931 90.9436 29.6012C91.3398 27.6094 92.3177 25.7798 93.7538 24.3438C95.1898 22.9078 97.0194 21.9298 99.0112 21.5336C101.003 21.1374 103.068 21.3408 104.944 22.1179C106.82 22.8951 108.424 24.2112 109.552 25.8998C110.68 27.5884 111.283 29.5736 111.283 31.6044C111.279 34.3268 110.197 36.9367 108.272 38.8617C106.347 40.7867 103.737 41.8695 101.014 41.8726ZM101.014 22.2698C99.1682 22.2698 97.3634 22.8172 95.8284 23.8429C94.2933 24.8687 93.0968 26.3265 92.3903 28.0322C91.6838 29.7379 91.4989 31.6148 91.8591 33.4255C92.2193 35.2363 93.1083 36.8996 94.4138 38.205C95.7193 39.5105 97.3826 40.3996 99.1933 40.7597C101.004 41.1199 102.881 40.9351 104.587 40.2285C106.292 39.522 107.75 38.3256 108.776 36.7905C109.802 35.2554 110.349 33.4507 110.349 31.6044C110.346 29.1296 109.362 26.7569 107.612 25.007C105.862 23.257 103.489 22.2726 101.014 22.2698Z" fill="#432C52"/>
<path d="M107.506 35.763C107.425 35.7629 107.344 35.7414 107.274 35.7006C107.203 35.6599 107.144 35.6012 107.103 35.5306C107.062 35.46 107.04 35.3798 107.04 35.2982C107.04 35.2165 107.061 35.1362 107.101 35.0652C107.86 33.7322 108.16 32.1869 107.955 30.6668C107.75 29.1467 107.052 27.7359 105.967 26.6513C104.883 25.5667 103.472 24.8682 101.952 24.6634C100.432 24.4585 98.8866 24.7585 97.5536 25.5173C97.5003 25.5486 97.4413 25.5691 97.3801 25.5775C97.3188 25.5859 97.2565 25.582 97.1967 25.5661C97.137 25.5502 97.081 25.5226 97.032 25.4849C96.983 25.4471 96.942 25.4001 96.9114 25.3464C96.8807 25.2926 96.8611 25.2334 96.8535 25.172C96.846 25.1107 96.8507 25.0484 96.8674 24.9889C96.8841 24.9293 96.9125 24.8737 96.9509 24.8253C96.9893 24.7768 97.0369 24.7364 97.091 24.7065C98.6018 23.8462 100.353 23.5059 102.076 23.738C103.799 23.9701 105.398 24.7616 106.628 25.991C107.857 27.2203 108.649 28.8194 108.881 30.5424C109.113 32.2654 108.773 34.017 107.912 35.5277C107.871 35.5993 107.812 35.6588 107.741 35.7001C107.67 35.7414 107.589 35.7631 107.506 35.763ZM101.014 39.5389C99.6258 39.5391 98.2614 39.1749 97.0577 38.4826C95.8539 37.7904 94.8529 36.7943 94.1547 35.594C93.4565 34.3937 93.0855 33.0312 93.0788 31.6426C93.0721 30.254 93.4299 28.888 94.1165 27.681C94.1464 27.6269 94.1868 27.5793 94.2353 27.5409C94.2837 27.5025 94.3394 27.4741 94.3989 27.4574C94.4584 27.4407 94.5207 27.436 94.582 27.4435C94.6434 27.451 94.7027 27.4707 94.7564 27.5013C94.8101 27.532 94.8571 27.573 94.8949 27.622C94.9326 27.671 94.9602 27.727 94.9761 27.7867C94.992 27.8465 94.9959 27.9088 94.9875 27.97C94.9791 28.0313 94.9586 28.0903 94.9273 28.1436C94.1684 29.4765 93.8684 31.0219 94.0732 32.542C94.278 34.0621 94.9763 35.4729 96.0609 36.5575C97.1455 37.6421 98.5562 38.3405 100.076 38.5454C101.596 38.7503 103.142 38.4503 104.475 37.6915C104.528 37.6611 104.587 37.6415 104.648 37.6338C104.708 37.6261 104.77 37.6304 104.829 37.6466C104.888 37.6627 104.944 37.6903 104.992 37.7279C105.041 37.7654 105.081 37.8122 105.112 37.8654C105.142 37.9186 105.162 37.9773 105.169 38.0381C105.177 38.0989 105.173 38.1607 105.157 38.2198C105.14 38.279 105.113 38.3343 105.075 38.3828C105.038 38.4313 104.991 38.4718 104.938 38.5022C103.742 39.1823 102.39 39.5396 101.014 39.5389ZM95.8803 26.9371C95.7568 26.9352 95.6384 26.8869 95.549 26.8017C95.463 26.7127 95.4145 26.5941 95.4136 26.4703C95.4143 26.4094 95.4269 26.3492 95.4505 26.293C95.4745 26.2365 95.5078 26.1844 95.549 26.1389C95.6033 26.085 95.6701 26.0453 95.7434 26.0233C95.8167 26.0013 95.8944 25.9977 95.9694 26.0127C96.0445 26.0278 96.1147 26.0611 96.1739 26.1097C96.233 26.1583 96.2793 26.2206 96.3087 26.2914C96.338 26.3621 96.3495 26.4389 96.3422 26.5151C96.3349 26.5913 96.3089 26.6645 96.2666 26.7283C96.2242 26.7921 96.1669 26.8445 96.0995 26.8809C96.0322 26.9173 95.9569 26.9366 95.8803 26.9371ZM106.148 37.2052C106.042 37.2041 105.939 37.1662 105.857 37.0978C105.775 37.0294 105.719 36.9347 105.699 36.8299C105.679 36.7251 105.696 36.6166 105.747 36.5228C105.798 36.429 105.88 36.3557 105.978 36.3154C106.077 36.275 106.187 36.2701 106.289 36.3015C106.391 36.3328 106.479 36.3985 106.538 36.4874C106.597 36.5762 106.623 36.6828 106.613 36.789C106.602 36.8951 106.555 36.9944 106.48 37.0698C106.39 37.155 106.272 37.2034 106.148 37.2052Z" fill="#432C52"/>
<path d="M160.768 86.7009C156.799 86.7009 153.104 85.9816 149.681 84.543C146.308 83.1044 143.356 81.0953 140.826 78.5157C138.296 75.9362 136.312 72.9101 134.873 69.4376C133.484 65.9651 132.79 62.1702 132.79 58.0528C132.79 53.9354 133.484 50.1405 134.873 46.668C136.262 43.1459 138.222 40.1199 140.752 37.5899C143.282 35.0103 146.233 33.026 149.606 31.637C153.029 30.1984 156.75 29.4791 160.768 29.4791C164.786 29.4791 168.383 30.1488 171.558 31.4882C174.782 32.8276 177.51 34.6135 179.743 36.8458C181.975 39.0781 183.562 41.5585 184.505 44.2869L174.311 49.198C173.368 46.5192 171.706 44.3117 169.325 42.5754C166.994 40.7896 164.141 39.8966 160.768 39.8966C157.494 39.8966 154.617 40.6655 152.136 42.2034C149.656 43.7412 147.721 45.8743 146.332 48.6027C144.993 51.2815 144.323 54.4315 144.323 58.0528C144.323 61.6741 144.993 64.849 146.332 67.5774C147.721 70.3058 149.656 72.4389 152.136 73.9767C154.617 75.5145 157.494 76.2834 160.768 76.2834C164.141 76.2834 166.994 75.4153 169.325 73.6791C171.706 71.8932 173.368 69.6609 174.311 66.9821L184.505 71.8932C183.562 74.6216 181.975 77.1019 179.743 79.3343C177.51 81.5666 174.782 83.3524 171.558 84.6918C168.383 86.0312 164.786 86.7009 160.768 86.7009ZM213.187 86.7009C208.822 86.7009 204.928 85.7832 201.505 83.9477C198.082 82.1123 195.378 79.6071 193.394 76.4322C191.459 73.2078 190.492 69.5617 190.492 65.4939V30.3721H202.026V64.7498C202.026 66.9325 202.497 68.9168 203.44 70.7026C204.432 72.4389 205.771 73.8031 207.458 74.7952C209.144 75.7874 211.054 76.2834 213.187 76.2834C215.37 76.2834 217.28 75.7874 218.917 74.7952C220.604 73.8031 221.918 72.4389 222.861 70.7026C223.853 68.9168 224.349 66.9325 224.349 64.7498V30.3721H235.883V65.4939C235.883 69.5617 234.891 73.2078 232.906 76.4322C230.972 79.6071 228.293 82.1123 224.87 83.9477C221.447 85.7832 217.553 86.7009 213.187 86.7009ZM263.015 86.7009C258.699 86.7009 254.954 85.7584 251.779 83.8733C248.604 81.9386 246.149 79.3591 244.413 76.1346C242.676 72.9101 241.808 69.3384 241.808 65.4195C241.808 61.3517 242.701 57.7304 244.487 54.5555C246.322 51.3807 248.778 48.8755 251.854 47.04C254.929 45.2046 258.402 44.2869 262.271 44.2869C265.496 44.2869 268.348 44.8077 270.828 45.8495C273.309 46.8416 275.392 48.2554 277.079 50.0909C278.815 51.9263 280.13 54.0594 281.023 56.4902C281.915 58.8713 282.362 61.4757 282.362 64.3033C282.362 65.097 282.312 65.8907 282.213 66.6845C282.164 67.4286 282.04 68.0735 281.841 68.6191H251.407V60.434H275.516L270.233 64.3033C270.729 62.1702 270.704 60.2851 270.159 58.6481C269.613 56.9615 268.646 55.6469 267.257 54.7043C265.917 53.7122 264.255 53.2161 262.271 53.2161C260.336 53.2161 258.675 53.6874 257.286 54.6299C255.897 55.5725 254.855 56.9615 254.16 58.7969C253.466 60.6324 253.193 62.8647 253.342 65.4939C253.143 67.7758 253.416 69.7849 254.16 71.5211C254.904 73.2574 256.045 74.6216 257.583 75.6137C259.121 76.5563 260.981 77.0275 263.164 77.0275C265.148 77.0275 266.835 76.6307 268.224 75.837C269.663 75.0432 270.779 73.9519 271.572 72.5629L280.502 76.8043C279.708 78.7886 278.443 80.5248 276.707 82.013C275.02 83.5013 273.011 84.667 270.679 85.5103C268.348 86.3041 265.793 86.7009 263.015 86.7009ZM301.635 85.808V30.3721H322.917C326.737 30.3721 330.11 31.0418 333.037 32.3812C336.013 33.7205 338.345 35.7048 340.031 38.334C341.718 40.9632 342.561 44.2124 342.561 48.0818C342.561 51.8519 341.693 55.0516 339.957 57.6808C338.27 60.3099 335.939 62.319 332.962 63.708C330.036 65.0474 326.687 65.7171 322.917 65.7171H313.169V85.808H301.635ZM313.169 55.6717H322.991C324.628 55.6717 326.042 55.3492 327.233 54.7043C328.423 54.0594 329.341 53.1665 329.986 52.0256C330.68 50.8846 331.028 49.57 331.028 48.0818C331.028 46.544 330.68 45.2046 329.986 44.0636C329.341 42.9227 328.423 42.0297 327.233 41.3848C326.042 40.7399 324.628 40.4175 322.991 40.4175H313.169V55.6717ZM348.396 85.808V45.1798H359.558V85.808H348.396ZM348.396 41.5337V30.3721H359.558V41.5337H348.396ZM366.981 85.808V45.1798H377.399V53.2161L376.804 51.4303C377.746 48.9995 379.259 47.2137 381.343 46.0727C383.476 44.8821 385.956 44.2869 388.784 44.2869C391.859 44.2869 394.538 44.9317 396.82 46.2215C399.152 47.5113 400.962 49.322 402.252 51.6535C403.542 53.9354 404.187 56.6142 404.187 59.6899V85.808H393.025V62.071C393.025 60.4836 392.703 59.1194 392.058 57.9784C391.462 56.8374 390.594 55.9445 389.453 55.2996C388.362 54.6547 387.072 54.3323 385.584 54.3323C384.145 54.3323 382.856 54.6547 381.715 55.2996C380.574 55.9445 379.681 56.8374 379.036 57.9784C378.441 59.1194 378.143 60.4836 378.143 62.071V85.808H366.981Z" fill="#704988"/>
</svg>
