<svg width="217" height="59" viewBox="0 0 217 59" fill="none" xmlns="http://www.w3.org/2000/svg">
<path d="M49.4944 34.8293C49.4974 37.8098 48.8382 40.7538 47.5646 43.4484C46.291 46.1431 44.4347 48.5212 42.1298 50.4109H16.5302C13.3408 47.7918 11.0312 44.2577 9.91266 40.2852C6.31171 27.4499 15.9631 14.665 29.33 14.665C34.678 14.665 39.8068 16.7894 43.5884 20.571C47.37 24.3525 49.4944 29.4814 49.4944 34.8293Z" fill="#E2DBE7"/>
<path d="M48.7474 40.2852C47.6289 44.2577 45.3192 47.7918 42.1298 50.4109H16.5302C13.3408 47.7918 11.0312 44.2577 9.91266 40.2852C10.7716 40.1682 11.5826 39.8201 12.2591 39.2781C13.514 38.2711 14.96 37.5286 16.5097 37.0956C18.0594 36.6625 19.6807 36.5478 21.2759 36.7584C22.8712 36.969 24.4072 37.5005 25.7915 38.3209C27.1757 39.1413 28.3794 40.2335 29.33 41.5317C33.395 35.998 41.1571 35.0906 46.393 39.2759C47.0718 39.8195 47.8856 40.1683 48.7474 40.2852Z" fill="#7ADA90"/>
<path d="M42.1298 51.3275H16.5302C16.3179 51.3275 16.1122 51.2538 15.9482 51.119C13.4819 49.0869 11.5054 46.525 10.1658 43.6238C10.1155 43.5144 10.0873 43.3962 10.0828 43.2759C10.0782 43.1556 10.0974 43.0356 10.1392 42.9227C10.181 42.8099 10.2446 42.7063 10.3264 42.618C10.4083 42.5297 10.5067 42.4584 10.6161 42.4082C10.7254 42.3579 10.8436 42.3297 10.9639 42.3252C11.0842 42.3206 11.2042 42.3398 11.3171 42.3816C11.43 42.4234 11.5335 42.487 11.6218 42.5688C11.7101 42.6507 11.7814 42.7491 11.8316 42.8585C13.0089 45.4085 14.7258 47.6726 16.8636 49.4944H41.7975C43.9259 47.6899 45.6351 45.4429 46.8061 42.9102C47.9772 40.3774 48.5817 37.6197 48.5778 34.8294C48.5778 24.2156 39.9438 15.5816 29.33 15.5816C16.9564 15.5816 7.77586 27.1325 10.5817 39.2048C10.6089 39.3221 10.6128 39.4436 10.5931 39.5624C10.5733 39.6811 10.5304 39.7949 10.4667 39.897C10.4031 39.9992 10.3199 40.0879 10.222 40.1579C10.124 40.228 10.0133 40.278 9.89598 40.3053C9.7787 40.3325 9.6572 40.3364 9.53843 40.3166C9.41965 40.2969 9.30593 40.254 9.20374 40.1903C9.10156 40.1266 9.01291 40.0435 8.94287 39.9455C8.87283 39.8476 8.82276 39.7368 8.79553 39.6196C5.71703 26.3752 15.8107 13.7484 29.33 13.7484C40.9543 13.7484 50.4109 23.2051 50.4109 34.8294C50.4152 37.9455 49.7266 41.0236 48.395 43.8408C47.0635 46.6581 45.1222 49.1441 42.7118 51.119C42.5478 51.2538 42.3421 51.3275 42.1298 51.3275Z" fill="#432C52"/>
<path d="M34.5063 51.3275H24.1537C24.0233 51.3269 23.8945 51.2985 23.776 51.2441C23.6574 51.1898 23.5519 51.1108 23.4663 51.0124C19.5056 46.4686 17.4147 40.8729 17.4147 34.8294C17.4147 26.3821 21.5713 18.7551 28.8201 13.9031C28.971 13.8021 29.1484 13.7482 29.33 13.7482C29.5115 13.7482 29.689 13.8021 29.8398 13.9031C37.0887 18.7551 41.2453 26.3821 41.2453 34.8294C41.2453 40.8729 39.1544 46.4686 35.1971 51.0124C35.1112 51.1112 35.005 51.1905 34.8859 51.2449C34.7667 51.2992 34.6373 51.3274 34.5063 51.3275ZM24.5753 49.4944H34.0847C42.3509 39.6619 41.1949 24.1296 29.33 15.7763C17.4616 24.1331 16.3125 39.6665 24.5753 49.4944Z" fill="#432C52"/>
<path d="M29.33 50.411H2.74969V46.9738C2.74969 45.9407 3.1601 44.9499 3.89063 44.2194C4.62116 43.4889 5.61196 43.0785 6.64509 43.0785H9.2676C10.9819 43.0791 12.6452 42.4956 13.9833 41.4241C19.0954 37.3408 26.7224 39.7697 28.5337 46.0309C28.7354 46.7172 28.7365 46.8513 29.33 50.411Z" fill="#F6EDC8"/>
<path d="M29.33 50.4109H2.74964V46.9738C2.74815 46.2445 2.95268 45.5296 3.33968 44.9115H24.2144C25.7268 44.9102 27.2144 45.2955 28.536 46.0309C28.7353 46.7171 28.7365 46.8512 29.33 50.4109Z" fill="#F4DCB5"/>
<path d="M29.33 51.3275H2.74969C2.5066 51.3275 2.27347 51.2309 2.10158 51.059C1.9297 50.8871 1.83313 50.654 1.83313 50.4109V46.9738C1.83313 45.6976 2.3401 44.4737 3.24252 43.5713C4.14493 42.6688 5.36887 42.1619 6.64508 42.1619H9.2676C10.7733 42.1598 12.2337 41.6473 13.4105 40.708C14.7853 39.6082 16.4238 38.8869 18.1634 38.6158C19.9031 38.3446 21.6833 38.533 23.3277 39.1623C24.972 39.7915 26.4233 40.8398 27.5374 42.203C28.6516 43.5662 29.3901 45.197 29.6794 46.9337L30.234 50.2563C30.2565 50.3878 30.25 50.5228 30.215 50.6516C30.1799 50.7804 30.1171 50.9 30.031 51.002C29.9449 51.1041 29.8376 51.1861 29.7165 51.2423C29.5954 51.2985 29.4635 51.3276 29.33 51.3275ZM3.66625 49.4944H28.2485L27.8715 47.235C27.6349 45.8135 27.0306 44.4786 26.1187 43.3628C25.2068 42.247 24.0189 41.389 22.6731 40.874C21.3272 40.359 19.87 40.2049 18.4461 40.427C17.0223 40.6491 15.6813 41.2397 14.5562 42.1401C13.0537 43.3385 11.1895 43.9924 9.2676 43.995H6.64508C5.85505 43.995 5.09737 44.3088 4.53873 44.8675C3.98009 45.4261 3.66625 46.1838 3.66625 46.9738V49.4944Z" fill="#432C52"/>
<path d="M55.9103 46.9738V50.4109H29.33C29.9326 46.7962 29.9292 46.6989 30.1239 46.0309C31.9376 39.7696 39.5634 37.3396 44.6744 41.424C46.0131 42.496 47.6773 43.0795 49.3924 43.0784H52.0149C53.048 43.0784 54.0388 43.4888 54.7693 44.2194C55.4999 44.9499 55.9103 45.9407 55.9103 46.9738Z" fill="#F6EDC8"/>
<path d="M55.9103 46.9738V50.4109H29.33C29.9326 46.7962 29.9292 46.6988 30.1239 46.0309C31.4456 45.2958 32.9332 44.9105 34.4455 44.9115H55.3202C55.7072 45.5296 55.9118 46.2445 55.9103 46.9738Z" fill="#F4DCB5"/>
<path d="M55.9103 51.3275H29.33C29.1968 51.3275 29.0653 51.2985 28.9445 51.2425C28.8237 51.1865 28.7165 51.1048 28.6305 51.0032C28.5444 50.9016 28.4816 50.7824 28.4463 50.654C28.411 50.5256 28.404 50.3911 28.426 50.2597L28.9805 46.9372C29.2699 45.2005 30.0083 43.5697 31.1225 42.2065C32.2367 40.8432 33.688 39.795 35.3323 39.1658C36.9766 38.5365 38.7569 38.3481 40.4965 38.6192C42.2362 38.8904 43.8747 39.6116 45.2495 40.7114C46.4267 41.6495 47.8871 42.1608 49.3924 42.1619H52.0149C53.2911 42.1619 54.515 42.6689 55.4175 43.5713C56.3199 44.4737 56.8268 45.6977 56.8268 46.9739V50.411C56.8268 50.6541 56.7303 50.8872 56.5584 51.0591C56.3865 51.231 56.1534 51.3275 55.9103 51.3275ZM30.4115 49.4944H54.9937V46.9739C54.9937 46.1838 54.6799 45.4262 54.1212 44.8675C53.5626 44.3089 52.8049 43.995 52.0149 43.995H49.3924C47.4725 43.9911 45.6105 43.3373 44.1095 42.1401C42.9844 41.2397 41.6434 40.6492 40.2196 40.4271C38.7957 40.205 37.3386 40.3591 35.9927 40.874C34.6468 41.389 33.4589 42.247 32.547 43.3629C31.6351 44.4787 31.0308 45.8136 30.7942 47.2351L30.4115 49.4944Z" fill="#432C52"/>
<path d="M57.7434 49.9526C57.7434 50.5603 57.502 51.1432 57.0723 51.5729C56.6426 52.0026 56.0597 52.244 55.452 52.244H34.0274C33.7333 52.244 33.4477 52.3423 33.216 52.5234C32.9843 52.7044 32.8199 52.9578 32.7488 53.2431C32.5581 54.0048 32.1183 54.681 31.4993 55.1642C30.8803 55.6474 30.1175 55.9098 29.3323 55.9098C28.547 55.9098 27.7843 55.6474 27.1653 55.1642C26.5463 54.681 26.1065 54.0048 25.9158 53.2431C25.8444 52.9571 25.6791 52.7033 25.4465 52.5222C25.214 52.3411 24.9274 52.2432 24.6326 52.244H3.20797C2.60025 52.244 2.01742 52.0026 1.5877 51.5729C1.15798 51.1432 0.916565 50.5603 0.916565 49.9526C0.916565 49.3449 1.15798 48.7621 1.5877 48.3324C2.01742 47.9026 2.60025 47.6612 3.20797 47.6612H24.2144C25.2279 47.6611 26.2257 47.9122 27.1184 48.392C28.0111 48.8719 28.771 49.5655 29.33 50.4109C29.889 49.5655 30.6489 48.8719 31.5416 48.392C32.4343 47.9122 33.4321 47.6611 34.4456 47.6612H55.452C56.0597 47.6612 56.6426 47.9026 57.0723 48.3324C57.502 48.7621 57.7434 49.3449 57.7434 49.9526Z" fill="#7ADA90"/>
<path d="M55.452 49.4943H34.0274C33.7333 49.4943 33.4477 49.5926 33.216 49.7737C32.9843 49.9547 32.8199 50.2081 32.7488 50.4934C32.5581 51.2551 32.1183 51.9313 31.4993 52.4145C30.8803 52.8977 30.1176 53.1601 29.3323 53.1601C28.547 53.1601 27.7843 52.8977 27.1653 52.4145C26.5463 51.9313 26.1065 51.2551 25.9158 50.4934C25.8445 50.2073 25.6794 49.9534 25.4467 49.7723C25.2141 49.5911 24.9275 49.4933 24.6326 49.4943H3.20798C2.85215 49.4949 2.50112 49.4123 2.18286 49.2532C1.8646 49.094 1.58792 48.8628 1.37485 48.5778C1.07648 48.9739 0.915571 49.4567 0.91657 49.9526C0.91657 50.5603 1.15798 51.1432 1.58771 51.5729C2.01743 52.0026 2.60026 52.244 3.20798 52.244H24.6326C24.9267 52.244 25.2123 52.3423 25.444 52.5234C25.6757 52.7044 25.8401 52.9578 25.9112 53.2431C26.1019 54.0048 26.5417 54.681 27.1607 55.1642C27.7797 55.6474 28.5425 55.9098 29.3277 55.9098C30.113 55.9098 30.8757 55.6474 31.4947 55.1642C32.1137 54.681 32.5535 54.0048 32.7442 53.2431C32.8155 52.957 32.9806 52.7031 33.2133 52.522C33.4459 52.3408 33.7326 52.243 34.0274 52.244H55.452C56.0598 52.244 56.6426 52.0026 57.0723 51.5729C57.502 51.1432 57.7434 50.5603 57.7434 49.9526C57.7444 49.4567 57.5835 48.9739 57.2852 48.5778C57.0721 48.8628 56.7954 49.094 56.4771 49.2532C56.1589 49.4123 55.8079 49.4949 55.452 49.4943Z" fill="#01953F"/>
<path d="M29.33 56.8268C28.34 56.8279 27.3781 56.4976 26.5977 55.8883C25.8174 55.2791 25.2635 54.426 25.0244 53.4653C25.0028 53.3779 24.9524 53.3003 24.8814 53.245C24.8103 53.1897 24.7227 53.16 24.6326 53.1606H3.20797C2.35716 53.1606 1.5412 52.8226 0.939592 52.221C0.337981 51.6194 0 50.8034 0 49.9526C0 49.1018 0.337981 48.2858 0.939592 47.6842C1.5412 47.0826 2.35716 46.7446 3.20797 46.7446H24.2144C25.1718 46.7434 26.1193 46.9377 26.9989 47.3155C27.8786 47.6934 28.6718 48.2469 29.33 48.9421C29.9882 48.2469 30.7815 47.6935 31.6611 47.3156C32.5407 46.9378 33.4882 46.7435 34.4456 46.7446H55.452C56.3028 46.7446 57.1188 47.0826 57.7204 47.6842C58.322 48.2858 58.66 49.1018 58.66 49.9526C58.66 50.8034 58.322 51.6194 57.7204 52.221C57.1188 52.8226 56.3028 53.1606 55.452 53.1606H47.6613C47.4182 53.1606 47.185 53.064 47.0131 52.8921C46.8413 52.7202 46.7447 52.4871 46.7447 52.244C46.7447 52.0009 46.8413 51.7678 47.0131 51.5959C47.185 51.424 47.4182 51.3274 47.6613 51.3274H55.452C55.8167 51.3274 56.1664 51.1826 56.4242 50.9248C56.682 50.6669 56.8269 50.3172 56.8269 49.9526C56.8269 49.588 56.682 49.2383 56.4242 48.9804C56.1664 48.7226 55.8167 48.5777 55.452 48.5777H34.4456C33.5828 48.5768 32.7333 48.7902 31.9734 49.1987C31.2135 49.6073 30.5669 50.1982 30.0919 50.9184C30.0082 51.0441 29.8948 51.1472 29.7617 51.2186C29.6285 51.2899 29.4799 51.3272 29.3289 51.3272C29.1778 51.3272 29.0292 51.2899 28.896 51.2186C28.7629 51.1472 28.6495 51.0441 28.5658 50.9184C28.0909 50.198 27.4444 49.607 26.6845 49.1984C25.9245 48.7899 25.075 48.5766 24.2121 48.5777H3.20797C2.84334 48.5777 2.49364 48.7226 2.23581 48.9804C1.97797 49.2383 1.83312 49.588 1.83312 49.9526C1.83312 50.3172 1.97797 50.6669 2.23581 50.9248C2.49364 51.1826 2.84334 51.3274 3.20797 51.3274H24.6326C25.1312 51.327 25.6155 51.4936 26.0083 51.8005C26.4012 52.1074 26.68 52.537 26.8003 53.0208C26.9413 53.5844 27.2666 54.0846 27.7246 54.4421C28.1825 54.7996 28.7468 54.9938 29.3277 54.9938C29.9087 54.9938 30.4729 54.7996 30.9309 54.4421C31.3888 54.0846 31.7141 53.5844 31.8551 53.0208C31.9756 52.5362 32.2551 52.106 32.6489 51.7991C33.0427 51.4921 33.5281 51.326 34.0274 51.3274H43.995C44.2381 51.3274 44.4712 51.424 44.6431 51.5959C44.815 51.7678 44.9116 52.0009 44.9116 52.244C44.9116 52.4871 44.815 52.7202 44.6431 52.8921C44.4712 53.064 44.2381 53.1606 43.995 53.1606H34.0274C33.9377 53.1605 33.8506 53.1905 33.78 53.2457C33.7094 53.301 33.6594 53.3783 33.6378 53.4653C33.3987 54.4264 32.8445 55.2797 32.0637 55.889C31.2828 56.4983 30.3204 56.8285 29.33 56.8268ZM16.2277 19.6728C16.1293 19.5832 16.0515 19.4733 15.9998 19.3506C15.9482 19.228 15.9238 19.0955 15.9285 18.9625C15.9332 18.8295 15.9668 18.6991 16.027 18.5804C16.0872 18.4616 16.1725 18.3575 16.277 18.275C19.9943 15.3389 24.593 13.7419 29.33 13.7419C34.067 13.7419 38.6657 15.3389 42.383 18.275C42.4875 18.3575 42.5728 18.4616 42.633 18.5804C42.6932 18.6991 42.7268 18.8295 42.7315 18.9625C42.7362 19.0955 42.7118 19.228 42.6602 19.3506C42.6085 19.4733 42.5307 19.5832 42.4323 19.6728C36.3394 25.2192 22.3137 25.2123 16.2277 19.6728ZM18.3427 19.0186C23.8845 22.9656 34.74 22.9908 40.3173 19.0186C37.0926 16.7751 33.2584 15.5725 29.33 15.5725C25.4016 15.5725 21.5674 16.7751 18.3427 19.0186ZM49.4944 35.7459H9.16562C8.92254 35.7459 8.68941 35.6493 8.51752 35.4774C8.34563 35.3055 8.24906 35.0724 8.24906 34.8293C8.24906 34.5862 8.34563 34.3531 8.51752 34.1812C8.68941 34.0093 8.92254 33.9127 9.16562 33.9127H49.4944C49.7375 33.9127 49.9706 34.0093 50.1425 34.1812C50.3144 34.3531 50.4109 34.5862 50.4109 34.8293C50.4109 35.0724 50.3144 35.3055 50.1425 35.4774C49.9706 35.6493 49.7375 35.7459 49.4944 35.7459Z" fill="#432C52"/>
<path d="M16.9252 9.04077C15.1465 9.66837 13.5902 10.6063 12.3841 11.7773C11.178 12.9484 10.3567 14.3193 9.98752 15.7772L9.77664 16.6098L9.56576 15.7772C9.19676 14.3192 8.37546 12.9484 7.16937 11.7772C5.96328 10.6061 4.40687 9.66828 2.62811 9.04077C4.40679 8.41318 5.96313 7.47529 7.1692 6.3042C8.37527 5.13311 9.19663 3.76226 9.56576 2.30433L9.77664 1.47174L9.98752 2.30433C10.3565 3.7623 11.1778 5.13319 12.3839 6.3043C13.59 7.47541 15.1464 8.41327 16.9252 9.04077Z" fill="#01953F"/>
<g clip-path="url(#clip0_6_765)">
<path d="M9.9869 14.4022C12.8318 14.4022 15.138 12.0959 15.138 9.25103C15.138 6.40613 12.8318 4.09988 9.9869 4.09988C7.142 4.09988 4.83575 6.40613 4.83575 9.25103C4.83575 12.0959 7.142 14.4022 9.9869 14.4022Z" fill="#E2DBE7"/>
<path d="M9.98694 13.1757C12.1545 13.1757 13.9116 11.4186 13.9116 9.25104C13.9116 7.0835 12.1545 5.32635 9.98694 5.32635C7.8194 5.32635 6.06226 7.0835 6.06226 9.25104C6.06226 11.4186 7.8194 13.1757 9.98694 13.1757Z" fill="#C6B6CF"/>
<path d="M8.50602 11.2064L8.56635 7.44088C8.56714 7.39174 8.60735 7.3524 8.6565 7.3527V7.3527C8.687 7.35288 8.71531 7.36855 8.73164 7.39431L11.1342 11.1812C11.1504 11.2068 11.1786 11.2223 11.2089 11.2225V11.2225C11.258 11.2228 11.2981 11.1832 11.2984 11.134L11.3209 7.37034M7.73359 8.72381L12.1387 8.75014M7.72701 9.82508L12.1321 9.85141" stroke="#432C52" stroke-width="0.495864" stroke-linecap="round"/>
<path d="M9.98696 14.6475C8.91964 14.6475 7.8763 14.331 6.98886 13.738C6.10142 13.145 5.40974 12.3022 5.0013 11.3162C4.59285 10.3301 4.48599 9.24505 4.69421 8.19825C4.90243 7.15144 5.41639 6.18989 6.1711 5.43518C6.9258 4.68048 7.88736 4.16652 8.93416 3.95829C9.98097 3.75007 11.066 3.85694 12.0521 4.26538C13.0382 4.67382 13.881 5.3655 14.4739 6.25294C15.0669 7.14038 15.3834 8.18373 15.3834 9.25104C15.3818 10.6818 14.8127 12.0534 13.801 13.0651C12.7893 14.0768 11.4177 14.6459 9.98696 14.6475ZM9.98696 4.34519C9.01667 4.34519 8.06817 4.63291 7.26141 5.17197C6.45465 5.71103 5.82585 6.47722 5.45454 7.37365C5.08323 8.27008 4.98607 9.25648 5.17537 10.2081C5.36466 11.1598 5.8319 12.0339 6.51799 12.72C7.20409 13.4061 8.07823 13.8733 9.02987 14.0626C9.98151 14.2519 10.9679 14.1548 11.8643 13.7835C12.7608 13.4121 13.527 12.7834 14.066 11.9766C14.6051 11.1698 14.8928 10.2213 14.8928 9.25104C14.8913 7.95039 14.374 6.70343 13.4543 5.78373C12.5346 4.86402 11.2876 4.34668 9.98696 4.34519Z" fill="#432C52"/>
<path d="M13.3987 11.4365C13.3558 11.4365 13.3136 11.4252 13.2764 11.4038C13.2392 11.3823 13.2083 11.3515 13.1868 11.3144C13.1652 11.2773 13.1538 11.2352 13.1536 11.1923C13.1535 11.1493 13.1645 11.1071 13.1858 11.0698C13.5846 10.3693 13.7423 9.55714 13.6347 8.75824C13.527 7.95934 13.16 7.2179 12.59 6.64787C12.02 6.07785 11.2786 5.71079 10.4797 5.60311C9.6808 5.49544 8.86865 5.6531 8.16808 6.05188C8.14007 6.06836 8.10908 6.07912 8.07688 6.08353C8.04469 6.08794 8.01194 6.0859 7.98054 6.07755C7.94913 6.06919 7.9197 6.05468 7.89396 6.03485C7.86821 6.01503 7.84666 5.99028 7.83056 5.96206C7.81446 5.93383 7.80412 5.90269 7.80016 5.87044C7.79619 5.83819 7.79867 5.80547 7.80746 5.77418C7.81624 5.7429 7.83116 5.71367 7.85134 5.6882C7.87151 5.66273 7.89655 5.64152 7.92499 5.6258C8.71899 5.17367 9.63951 4.99483 10.545 5.11679C11.4506 5.23874 12.291 5.65474 12.9371 6.30083C13.5832 6.94692 13.9992 7.78733 14.1211 8.69286C14.2431 9.59839 14.0642 10.5189 13.6121 11.3129C13.5906 11.3505 13.5596 11.3818 13.5221 11.4035C13.4846 11.4252 13.442 11.4366 13.3987 11.4365ZM9.98692 13.421C9.25713 13.4211 8.5401 13.2297 7.90746 12.8659C7.27482 12.502 6.74874 11.9786 6.38178 11.3478C6.01483 10.7169 5.81985 10.0009 5.81633 9.27108C5.81282 8.5413 6.00088 7.82338 6.36174 7.18905C6.37746 7.16061 6.39866 7.13557 6.42414 7.1154C6.44961 7.09522 6.47884 7.08031 6.51012 7.07152C6.54141 7.06274 6.57412 7.06025 6.60638 7.06422C6.63863 7.06819 6.66977 7.07852 6.698 7.09462C6.72622 7.11072 6.75096 7.13228 6.77079 7.15802C6.79062 7.18377 6.80513 7.2132 6.81348 7.2446C6.82184 7.276 6.82387 7.30875 6.81947 7.34094C6.81506 7.37314 6.8043 7.40414 6.78781 7.43214C6.38901 8.13269 6.2313 8.94483 6.33894 9.74373C6.44658 10.5426 6.8136 11.2841 7.3836 11.8541C7.95359 12.4241 8.69502 12.7912 9.49391 12.8989C10.2928 13.0065 11.1049 12.8489 11.8055 12.4501C11.8335 12.4341 11.8643 12.4238 11.8963 12.4197C11.9283 12.4157 11.9607 12.418 11.9918 12.4265C12.0229 12.4349 12.052 12.4495 12.0774 12.4692C12.1029 12.4889 12.1242 12.5135 12.1402 12.5415C12.1562 12.5694 12.1665 12.6003 12.1706 12.6322C12.1746 12.6642 12.1723 12.6967 12.1639 12.7277C12.1554 12.7588 12.1408 12.7879 12.1211 12.8134C12.1014 12.8389 12.0768 12.8602 12.0489 12.8762C11.4205 13.2336 10.7099 13.4213 9.98692 13.421ZM7.2887 6.79806C7.22377 6.79711 7.16158 6.7717 7.11454 6.72692C7.06936 6.68015 7.04389 6.61779 7.04341 6.55276C7.0438 6.52074 7.05038 6.48908 7.06279 6.45955C7.07541 6.42988 7.0929 6.40252 7.11454 6.37861C7.14311 6.35027 7.17821 6.3294 7.21675 6.31783C7.25528 6.30627 7.29607 6.30435 7.33552 6.31227C7.37497 6.32018 7.41187 6.33768 7.44296 6.36322C7.47405 6.38875 7.49839 6.42155 7.51382 6.45871C7.52925 6.49587 7.5353 6.53625 7.53144 6.5763C7.52758 6.61635 7.51392 6.65484 7.49168 6.68837C7.46944 6.72189 7.43929 6.74944 7.40389 6.76857C7.3685 6.7877 7.32894 6.79782 7.2887 6.79806ZM12.6851 12.1945C12.6291 12.1939 12.5749 12.174 12.5319 12.138C12.4888 12.1021 12.4596 12.0523 12.449 11.9973C12.4385 11.9422 12.4474 11.8852 12.4741 11.8359C12.5009 11.7866 12.5438 11.7481 12.5957 11.7269C12.6477 11.7057 12.7053 11.7031 12.7589 11.7195C12.8125 11.736 12.8588 11.7705 12.8898 11.8172C12.9208 11.8639 12.9348 11.9199 12.9292 11.9757C12.9236 12.0315 12.8989 12.0837 12.8593 12.1234C12.8123 12.1681 12.7501 12.1935 12.6851 12.1945Z" fill="#432C52"/>
</g>
<path d="M60.2369 16.6098C58.4582 17.2374 56.9019 18.1753 55.6958 19.3464C54.4897 20.5175 53.6684 21.8883 53.2992 23.3462L53.0883 24.1788L52.8775 23.3462C52.5085 21.8883 51.6872 20.5174 50.4811 19.3463C49.275 18.1752 47.7186 17.2373 45.9398 16.6098C47.7185 15.9822 49.2748 15.0443 50.4809 13.8732C51.687 12.7021 52.5083 11.3313 52.8775 9.87335L53.0883 9.04076L53.2992 9.87335C53.6682 11.3313 54.4895 12.7022 55.6956 13.8733C56.9017 15.0444 58.4581 15.9823 60.2369 16.6098Z" fill="#01953F"/>
<g clip-path="url(#clip1_6_765)">
<path d="M53.0883 21.7609C55.9332 21.7609 58.2395 19.4547 58.2395 16.6098C58.2395 13.7649 55.9332 11.4586 53.0883 11.4586C50.2434 11.4586 47.9372 13.7649 47.9372 16.6098C47.9372 19.4547 50.2434 21.7609 53.0883 21.7609Z" fill="#E2DBE7"/>
<path d="M53.0884 20.5345C55.2559 20.5345 57.0131 18.7773 57.0131 16.6098C57.0131 14.4423 55.2559 12.6851 53.0884 12.6851C50.9208 12.6851 49.1637 14.4423 49.1637 16.6098C49.1637 18.7773 50.9208 20.5345 53.0884 20.5345Z" fill="#C6B6CF"/>
<path d="M51.6075 18.5652L51.6678 14.7997C51.6686 14.7506 51.7088 14.7112 51.7579 14.7115V14.7115C51.7884 14.7117 51.8167 14.7274 51.8331 14.7531L54.2356 18.54C54.2519 18.5656 54.28 18.5812 54.3103 18.5813V18.5813C54.3595 18.5816 54.3996 18.542 54.3999 18.4928L54.4224 14.7292M50.835 16.0826L55.2401 16.109M50.8285 17.1839L55.2335 17.2102" stroke="#432C52" stroke-width="0.495864" stroke-linecap="round"/>
<path d="M53.0884 22.0063C52.0211 22.0063 50.9777 21.6898 50.0903 21.0968C49.2029 20.5038 48.5112 19.661 48.1027 18.6749C47.6943 17.6889 47.5874 16.6038 47.7956 15.557C48.0039 14.5102 48.5178 13.5487 49.2725 12.794C50.0272 12.0393 50.9888 11.5253 52.0356 11.3171C53.0824 11.1088 54.1675 11.2157 55.1535 11.6242C56.1396 12.0326 56.9824 12.7243 57.5754 13.6117C58.1683 14.4992 58.4848 15.5425 58.4848 16.6098C58.4832 18.0405 57.9141 19.4122 56.9025 20.4239C55.8908 21.4356 54.5191 22.0046 53.0884 22.0063ZM53.0884 11.704C52.1181 11.704 51.1696 11.9917 50.3629 12.5308C49.5561 13.0698 48.9273 13.836 48.556 14.7324C48.1847 15.6289 48.0875 16.6153 48.2768 17.5669C48.4661 18.5185 48.9333 19.3927 49.6194 20.0788C50.3055 20.7649 51.1797 21.2321 52.1313 21.4214C53.083 21.6107 54.0694 21.5136 54.9658 21.1422C55.8622 20.7709 56.6284 20.1421 57.1675 19.3354C57.7065 18.5286 57.9943 17.5801 57.9943 16.6098C57.9928 15.3092 57.4754 14.0622 56.5557 13.1425C55.636 12.2228 54.3891 11.7055 53.0884 11.704Z" fill="#432C52"/>
<path d="M56.5001 18.7954C56.4572 18.7953 56.4151 18.784 56.3779 18.7626C56.3407 18.7412 56.3098 18.7104 56.2882 18.6732C56.2667 18.6361 56.2552 18.594 56.2551 18.5511C56.2549 18.5082 56.266 18.4659 56.2872 18.4287C56.686 17.7281 56.8437 16.916 56.7361 16.1171C56.6285 15.3182 56.2614 14.5767 55.6914 14.0067C55.1214 13.4367 54.38 13.0696 53.5811 12.9619C52.7822 12.8543 51.9701 13.0119 51.2695 13.4107C51.2415 13.4272 51.2105 13.4379 51.1783 13.4424C51.1461 13.4468 51.1134 13.4447 51.082 13.4364C51.0506 13.428 51.0211 13.4135 50.9954 13.3937C50.9697 13.3739 50.9481 13.3491 50.932 13.3209C50.9159 13.2927 50.9056 13.2615 50.9016 13.2293C50.8976 13.197 50.9001 13.1643 50.9089 13.133C50.9177 13.1017 50.9326 13.0725 50.9528 13.047C50.973 13.0216 50.998 13.0003 51.0264 12.9846C51.8204 12.5325 52.741 12.3537 53.6465 12.4756C54.552 12.5976 55.3924 13.0136 56.0385 13.6597C56.6846 14.3057 57.1006 15.1462 57.2226 16.0517C57.3445 16.9572 57.1657 17.8777 56.7135 18.6717C56.6921 18.7094 56.661 18.7406 56.6235 18.7623C56.586 18.784 56.5435 18.7954 56.5001 18.7954ZM53.0884 20.7798C52.3586 20.7799 51.6415 20.5885 51.0089 20.2247C50.3763 19.8609 49.8502 19.3374 49.4832 18.7066C49.1163 18.0758 48.9213 17.3597 48.9178 16.6299C48.9143 15.9001 49.1023 15.1822 49.4632 14.5479C49.4789 14.5194 49.5001 14.4944 49.5256 14.4742C49.551 14.454 49.5803 14.4391 49.6116 14.4303C49.6428 14.4216 49.6756 14.4191 49.7078 14.423C49.7401 14.427 49.7712 14.4373 49.7994 14.4534C49.8277 14.4696 49.8524 14.4911 49.8722 14.5168C49.8921 14.5426 49.9066 14.572 49.9149 14.6034C49.9233 14.6348 49.9253 14.6676 49.9209 14.6998C49.9165 14.732 49.9057 14.763 49.8893 14.791C49.4904 15.4915 49.3327 16.3037 49.4404 17.1026C49.548 17.9015 49.915 18.6429 50.485 19.2129C51.055 19.7829 51.7965 20.15 52.5953 20.2577C53.3942 20.3654 54.2064 20.2077 54.907 19.8089C54.9349 19.7929 54.9658 19.7826 54.9977 19.7786C55.0297 19.7745 55.0622 19.7768 55.0932 19.7853C55.1243 19.7938 55.1534 19.8083 55.1789 19.828C55.2044 19.8478 55.2257 19.8723 55.2417 19.9003C55.2576 19.9283 55.268 19.9591 55.272 19.9911C55.2761 20.023 55.2738 20.0555 55.2653 20.0866C55.2568 20.1176 55.2423 20.1467 55.2226 20.1722C55.2028 20.1977 55.1783 20.219 55.1503 20.235C54.5219 20.5924 53.8113 20.7802 53.0884 20.7798ZM50.3901 14.1569C50.3252 14.1559 50.263 14.1305 50.216 14.0857C50.1708 14.039 50.1453 13.9766 50.1448 13.9116C50.1452 13.8796 50.1518 13.8479 50.1642 13.8184C50.1768 13.7887 50.1943 13.7613 50.216 13.7374C50.2446 13.7091 50.2797 13.6882 50.3182 13.6767C50.3567 13.6651 50.3975 13.6632 50.437 13.6711C50.4764 13.679 50.5133 13.6965 50.5444 13.722C50.5755 13.7476 50.5998 13.7804 50.6153 13.8175C50.6307 13.8547 50.6367 13.8951 50.6329 13.9351C50.629 13.9752 50.6154 14.0137 50.5931 14.0472C50.5709 14.0807 50.5407 14.1083 50.5053 14.1274C50.4699 14.1465 50.4304 14.1566 50.3901 14.1569ZM55.7866 19.5533C55.7305 19.5528 55.6764 19.5328 55.6333 19.4969C55.5903 19.4609 55.561 19.4112 55.5505 19.3561C55.54 19.301 55.5488 19.244 55.5756 19.1947C55.6023 19.1454 55.6453 19.1069 55.6972 19.0857C55.7491 19.0645 55.8067 19.0619 55.8603 19.0784C55.914 19.0948 55.9602 19.1294 55.9912 19.1761C56.0223 19.2228 56.0362 19.2788 56.0306 19.3346C56.0251 19.3904 56.0004 19.4425 55.9607 19.4822C55.9137 19.527 55.8515 19.5524 55.7866 19.5533Z" fill="#432C52"/>
</g>
<path d="M87.2462 45.2993C85.1605 45.2993 83.2312 44.9213 81.4584 44.1652C79.7116 43.4091 78.1734 42.3532 76.8437 40.9975C75.5401 39.6418 74.5234 38.0514 73.7934 36.2264C73.0634 34.4014 72.6984 32.407 72.6984 30.243C72.6984 28.0791 73.0503 26.0846 73.7542 24.2596C74.4842 22.4086 75.501 20.8182 76.8046 19.4886C78.1342 18.1329 79.6855 17.09 81.4584 16.36C83.2312 15.6039 85.1605 15.2259 87.2462 15.2259C89.3319 15.2259 91.196 15.5779 92.8385 16.2818C94.5071 16.9857 95.915 17.9243 97.0621 19.0975C98.2092 20.2446 99.0305 21.5091 99.5259 22.8909L94.7548 25.12C94.2073 23.66 93.2817 22.4607 91.9782 21.5221C90.6746 20.5575 89.0973 20.0752 87.2462 20.0752C85.4212 20.0752 83.8048 20.5054 82.3969 21.3657C81.0151 22.2261 79.9332 23.4123 79.151 24.9245C78.395 26.4366 78.0169 28.2095 78.0169 30.243C78.0169 32.2766 78.395 34.0625 79.151 35.6007C79.9332 37.1129 81.0151 38.2991 82.3969 39.1595C83.8048 40.0198 85.4212 40.45 87.2462 40.45C89.0973 40.45 90.6746 39.9807 91.9782 39.0421C93.2817 38.0775 94.2073 36.8652 94.7548 35.4052L99.5259 37.6343C99.0305 39.0161 98.2092 40.2936 97.0621 41.4668C95.915 42.6139 94.5071 43.5395 92.8385 44.2434C91.196 44.9473 89.3319 45.2993 87.2462 45.2993ZM114.677 45.2993C112.434 45.2993 110.44 44.83 108.693 43.8914C106.972 42.9529 105.617 41.6623 104.626 40.0198C103.635 38.3773 103.14 36.5132 103.14 34.4275V15.6952H108.458V34.1538C108.458 35.353 108.719 36.435 109.241 37.3996C109.788 38.3643 110.531 39.1204 111.47 39.6679C112.408 40.1893 113.477 40.45 114.677 40.45C115.902 40.45 116.971 40.1893 117.883 39.6679C118.822 39.1204 119.552 38.3643 120.073 37.3996C120.621 36.435 120.895 35.353 120.895 34.1538V15.6952H126.213V34.4275C126.213 36.5132 125.718 38.3773 124.727 40.0198C123.736 41.6623 122.368 42.9529 120.621 43.8914C118.9 44.83 116.919 45.2993 114.677 45.2993ZM140.791 45.2993C138.601 45.2993 136.685 44.8039 135.042 43.8132C133.4 42.8225 132.122 41.4798 131.21 39.7852C130.297 38.0905 129.841 36.2134 129.841 34.1538C129.841 32.0159 130.297 30.1257 131.21 28.4832C132.149 26.8146 133.413 25.498 135.003 24.5334C136.62 23.5687 138.419 23.0864 140.4 23.0864C142.069 23.0864 143.529 23.3602 144.78 23.9077C146.058 24.4552 147.14 25.2113 148.026 26.1759C148.912 27.1405 149.59 28.2486 150.06 29.5C150.529 30.7254 150.764 32.055 150.764 33.4889C150.764 33.8539 150.737 34.232 150.685 34.623C150.659 35.0141 150.594 35.353 150.49 35.6398H134.065V31.7291H147.596L145.171 33.5671C145.406 32.3679 145.341 31.2989 144.976 30.3604C144.637 29.4218 144.063 28.6788 143.255 28.1313C142.473 27.5838 141.521 27.31 140.4 27.31C139.331 27.31 138.38 27.5838 137.545 28.1313C136.711 28.6527 136.072 29.4348 135.629 30.4777C135.212 31.4945 135.056 32.7329 135.16 34.1929C135.056 35.4964 135.225 36.6566 135.668 37.6734C136.137 38.6641 136.815 39.4332 137.702 39.9807C138.614 40.5282 139.657 40.802 140.83 40.802C142.004 40.802 142.994 40.5543 143.802 40.0589C144.637 39.5636 145.289 38.8988 145.758 38.0645L149.903 40.098C149.486 41.1148 148.834 42.0143 147.948 42.7964C147.061 43.5786 146.006 44.1913 144.78 44.6345C143.581 45.0777 142.251 45.2993 140.791 45.2993ZM161.246 44.83V15.6952H172.118C174.099 15.6952 175.846 16.0602 177.358 16.7902C178.896 17.4941 180.095 18.537 180.956 19.9188C181.816 21.2745 182.246 22.93 182.246 24.8854C182.246 26.8146 181.803 28.4702 180.917 29.852C180.056 31.2077 178.87 32.2505 177.358 32.9805C175.846 33.7105 174.099 34.0755 172.118 34.0755H166.564V44.83H161.246ZM166.564 29.3827H172.196C173.16 29.3827 173.995 29.2002 174.699 28.8352C175.403 28.4441 175.95 27.9096 176.341 27.2318C176.732 26.5539 176.928 25.7718 176.928 24.8854C176.928 23.9729 176.732 23.1907 176.341 22.5389C175.95 21.8611 175.403 21.3396 174.699 20.9746C173.995 20.5836 173.16 20.388 172.196 20.388H166.564V29.3827ZM185.783 44.83V23.5557H190.906V44.83H185.783ZM185.783 21.1702V15.6952H190.906V21.1702H185.783ZM195.245 44.83V23.5557H200.055V27.7402L199.664 26.9971C200.16 25.7196 200.968 24.755 202.089 24.1032C203.236 23.4254 204.566 23.0864 206.078 23.0864C207.642 23.0864 209.024 23.4254 210.223 24.1032C211.449 24.7811 212.4 25.7327 213.078 26.958C213.756 28.1573 214.095 29.5521 214.095 31.1425V44.83H208.972V32.3548C208.972 31.4163 208.789 30.608 208.424 29.9302C208.059 29.2523 207.551 28.7309 206.899 28.3659C206.273 27.9748 205.53 27.7793 204.67 27.7793C203.836 27.7793 203.093 27.9748 202.441 28.3659C201.789 28.7309 201.281 29.2523 200.916 29.9302C200.551 30.608 200.368 31.4163 200.368 32.3548V44.83H195.245Z" fill="white"/>
<defs>
<clipPath id="clip0_6_765">
<rect width="11.774" height="11.774" fill="white" transform="translate(4.09991 3.36401)"/>
</clipPath>
<clipPath id="clip1_6_765">
<rect width="11.774" height="11.774" fill="white" transform="translate(47.2014 10.7227)"/>
</clipPath>
</defs>
</svg>
