<svg width="460" height="204" viewBox="0 0 460 204" fill="none" xmlns="http://www.w3.org/2000/svg">
<g clip-path="url(#clip0_3_2917)">
<path d="M199.561 122.372C168.037 122.372 141.571 138.185 134.004 159.596H117.228C115.246 159.59 113.283 159.976 111.451 160.731C109.619 161.487 107.955 162.597 106.554 163.998C105.153 165.4 104.042 167.064 103.287 168.896C102.531 170.728 102.145 172.691 102.151 174.673V184.707C102.145 186.69 102.53 188.655 103.285 190.489C104.04 192.323 105.15 193.99 106.551 195.394C107.951 196.798 109.616 197.912 111.448 198.671C113.28 199.43 115.244 199.82 117.228 199.819H125.264C125.187 199.019 125.15 198.216 125.152 197.412C125.152 194.294 125.765 191.207 126.958 188.327C128.151 185.446 129.9 182.829 132.104 180.624C134.309 178.42 136.926 176.671 139.807 175.478C142.687 174.285 145.775 173.671 148.892 173.672C152.01 173.671 155.098 174.284 157.979 175.477C160.86 176.67 163.478 178.418 165.683 180.623C167.887 182.828 169.636 185.445 170.83 188.326C172.023 191.207 172.637 194.294 172.636 197.412C172.636 198.219 172.604 199.031 172.525 199.819H223.748C223.671 199.019 223.634 198.216 223.636 197.412C223.636 194.294 224.249 191.207 225.442 188.327C226.635 185.446 228.384 182.829 230.589 180.624C232.793 178.42 235.411 176.671 238.291 175.478C241.172 174.285 244.259 173.671 247.377 173.672C250.494 173.671 253.582 174.285 256.462 175.478C259.343 176.671 261.96 178.42 264.165 180.624C266.369 182.829 268.118 185.446 269.311 188.327C270.504 191.207 271.118 194.294 271.117 197.412C271.117 198.219 271.085 199.031 271.006 199.819H281.932C283.915 199.82 285.879 199.431 287.711 198.671C289.543 197.912 291.208 196.799 292.608 195.395C294.009 193.992 295.119 192.325 295.874 190.491C296.629 188.658 297.015 186.693 297.009 184.71V174.669C297.015 172.688 296.628 170.725 295.873 168.894C295.117 167.062 294.006 165.398 292.605 163.997C291.204 162.596 289.54 161.486 287.708 160.731C285.877 159.976 283.914 159.59 281.932 159.596H265.16C257.58 138.185 231.085 122.372 199.561 122.372Z" fill="#FFC215"/>
<path fill-rule="evenodd" clip-rule="evenodd" d="M166.107 197.402C166.138 199.683 165.716 201.948 164.864 204.065C164.013 206.181 162.749 208.107 161.147 209.731C159.545 211.355 157.636 212.645 155.531 213.525C153.427 214.405 151.168 214.859 148.887 214.859C146.605 214.859 144.347 214.405 142.242 213.525C140.137 212.645 138.228 211.355 136.626 209.731C135.024 208.107 133.761 206.181 132.909 204.065C132.058 201.948 131.635 199.683 131.666 197.402C131.728 192.876 133.569 188.555 136.792 185.376C140.015 182.197 144.36 180.415 148.887 180.415C153.414 180.415 157.759 182.197 160.981 185.376C164.204 188.555 166.045 192.876 166.107 197.402ZM264.582 197.402C264.613 199.683 264.19 201.948 263.339 204.065C262.487 206.181 261.224 208.107 259.622 209.731C258.019 211.355 256.111 212.645 254.006 213.525C251.901 214.405 249.643 214.859 247.361 214.859C245.08 214.859 242.821 214.405 240.717 213.525C238.612 212.645 236.703 211.355 235.101 209.731C233.499 208.107 232.235 206.181 231.384 204.065C230.532 201.948 230.11 199.683 230.141 197.402C230.202 192.876 232.044 188.555 235.267 185.376C238.489 182.197 242.834 180.415 247.361 180.415C251.888 180.415 256.233 182.197 259.456 185.376C262.679 188.555 264.52 192.876 264.582 197.402Z" fill="#5D5E63"/>
<path opacity="0.413" d="M199.56 122.361C168.034 122.361 141.57 138.174 134.003 159.583H117.224C115.243 159.578 113.281 159.965 111.449 160.72C109.618 161.476 107.954 162.586 106.553 163.987C105.152 165.388 104.042 167.052 103.287 168.884C102.531 170.715 102.145 172.678 102.151 174.659V184.734C102.146 186.715 102.532 188.677 103.288 190.508C104.043 192.339 105.153 194.003 106.554 195.404C107.955 196.805 109.619 197.915 111.45 198.67C113.281 199.426 115.243 199.812 117.224 199.807H125.262C125.186 199.007 125.149 198.204 125.151 197.4C125.151 184.284 135.778 173.658 148.892 173.658C162.006 173.658 172.633 184.284 172.633 197.4C172.633 198.206 172.601 199.02 172.522 199.806H179.485L216.893 123.991C211.361 122.918 205.551 122.361 199.56 122.361Z" fill="url(#paint0_linear_3_2917)"/>
<path opacity="0.466" d="M199.559 122.361C179.375 122.361 161.258 128.856 148.855 139.139L216.19 199.807H223.745C223.669 199.007 223.632 198.204 223.634 197.4C223.634 184.284 234.261 173.658 247.374 173.658C260.49 173.658 271.116 184.284 271.116 197.4C271.116 198.206 271.084 199.02 271.005 199.806H281.931C283.912 199.811 285.875 199.425 287.706 198.669C289.537 197.914 291.201 196.804 292.602 195.403C294.002 194.002 295.113 192.338 295.868 190.507C296.624 188.676 297.01 186.713 297.005 184.732V174.658C297.01 172.677 296.624 170.714 295.869 168.883C295.113 167.052 294.003 165.388 292.602 163.987C291.201 162.586 289.538 161.476 287.706 160.72C285.875 159.964 283.912 159.578 281.931 159.583H265.152C257.578 138.174 231.084 122.361 199.559 122.361Z" fill="url(#paint1_linear_3_2917)"/>
<path d="M192.453 134.432C172.767 136.383 156.508 146.309 149.894 159.62H192.453V134.432ZM206.673 134.432V159.62H249.229C242.605 146.299 226.371 136.377 206.673 134.432Z" fill="#2E8CEA"/>
<path fill-rule="evenodd" clip-rule="evenodd" d="M121.375 159.582C121.646 160.551 121.821 161.561 121.821 162.619C121.823 164.093 121.533 165.553 120.97 166.916C120.407 168.278 119.58 169.516 118.537 170.558C117.495 171.6 116.257 172.426 114.894 172.989C113.532 173.553 112.072 173.841 110.598 173.839H102.151C102.354 169.989 104.028 166.363 106.826 163.71C109.624 161.057 113.334 159.579 117.19 159.582H121.375Z" fill="#FF5D42"/>
<path opacity="0.413" fill-rule="evenodd" clip-rule="evenodd" d="M162.299 186.596L145.3 214.225C146.457 214.471 147.662 214.633 148.892 214.633C152.143 214.635 155.328 213.716 158.078 211.983C160.829 210.251 163.033 207.775 164.436 204.842C165.838 201.91 166.382 198.64 166.005 195.411C165.627 192.182 164.34 189.126 162.299 186.596Z" fill="#4C4C50"/>
<path opacity="0.466" fill-rule="evenodd" clip-rule="evenodd" d="M158.792 211.504L132.358 192.697C132.02 193.858 131.804 195.052 131.714 196.258C131.497 199.501 132.202 202.74 133.748 205.599C135.293 208.459 137.617 210.822 140.449 212.417C143.282 214.012 146.508 214.772 149.754 214.61C153.001 214.449 156.132 213.372 158.792 211.504Z" fill="#4C4C50"/>
<path d="M145.015 130.097H48.134M124.867 144.913H61.5088M99.6823 160.617H53.081M48.4687 144.913H30.7812M92.8737 177.001H75.1895" stroke="#FCCD00" stroke-width="5.92556" stroke-linecap="round" stroke-linejoin="round"/>
</g>
<path d="M228.326 196L249.004 134.866H265.909L286.587 196H272.719L268.617 183.527H246.214L242.112 196H228.326ZM249.743 172.449H265.088L255.733 143.564H259.18L249.743 172.449ZM313.557 196.985C309.727 196.985 306.117 196.301 302.725 194.933C299.388 193.511 296.488 191.514 294.027 188.943C291.62 186.372 289.814 183.336 288.611 179.834L299.032 175.157C300.564 178.494 302.67 181.12 305.351 183.035C308.086 184.949 311.095 185.907 314.377 185.907C316.128 185.907 317.632 185.633 318.89 185.086C320.149 184.539 321.133 183.801 321.845 182.871C322.556 181.886 322.911 180.737 322.911 179.424C322.911 178.002 322.474 176.798 321.598 175.814C320.723 174.774 319.355 173.954 317.495 173.352L305.515 169.413C300.646 167.826 296.981 165.584 294.519 162.684C292.057 159.73 290.826 156.201 290.826 152.099C290.826 148.488 291.702 145.315 293.452 142.58C295.257 139.844 297.747 137.711 300.92 136.179C304.147 134.647 307.84 133.881 311.997 133.881C315.663 133.881 319.055 134.511 322.173 135.769C325.291 137.027 327.972 138.805 330.215 141.103C332.512 143.4 334.235 146.163 335.384 149.391L325.045 154.068C323.896 151.223 322.173 149.008 319.875 147.421C317.577 145.78 314.952 144.959 311.997 144.959C310.302 144.959 308.797 145.233 307.484 145.78C306.171 146.327 305.159 147.12 304.448 148.16C303.737 149.144 303.381 150.293 303.381 151.606C303.381 153.029 303.846 154.287 304.776 155.381C305.706 156.42 307.101 157.241 308.961 157.843L320.696 161.617C325.619 163.204 329.285 165.419 331.692 168.264C334.153 171.109 335.384 174.583 335.384 178.686C335.384 182.241 334.454 185.414 332.594 188.204C330.734 190.94 328.163 193.101 324.881 194.687C321.653 196.219 317.878 196.985 313.557 196.985ZM343.628 196V134.866H353.393L386.217 178.111L380.965 179.342V134.866H393.684V196H383.837L351.588 152.427L356.347 151.196V196H343.628ZM403.71 196V134.866H413.475L446.299 178.111L441.047 179.342V134.866H453.766V196H443.919L411.67 152.427L416.43 151.196V196H403.71Z" fill="#343434"/>
<defs>
<linearGradient id="paint0_linear_3_2917" x1="206.071" y1="162.34" x2="163.257" y2="149.769" gradientUnits="userSpaceOnUse">
<stop stop-color="#FF8915"/>
<stop offset="1" stop-color="#FF8915" stop-opacity="0"/>
</linearGradient>
<linearGradient id="paint1_linear_3_2917" x1="181.959" y1="187.902" x2="238.76" y2="152.702" gradientUnits="userSpaceOnUse">
<stop stop-color="#FFF306"/>
<stop offset="1" stop-color="#FFF306" stop-opacity="0"/>
</linearGradient>
<clipPath id="clip0_3_2917">
<rect width="204" height="204" fill="white" transform="translate(0.564453)"/>
</clipPath>
</defs>
</svg>
